<svg width="158" height="21" viewBox="0 0 158 21" fill="none" xmlns="http://www.w3.org/2000/svg">
<path d="M1.03571 20.4028C0.849364 20.4028 0.690967 20.3375 0.560523 20.2071C0.430078 20.0767 0.364856 19.9183 0.364856 19.7319V1.53491C0.364856 1.32993 0.430078 1.16221 0.560523 1.03177C0.690967 0.901325 0.849364 0.836103 1.03571 0.836103H9.1419C10.6513 0.836103 11.8812 1.06904 12.8316 1.53491C13.782 1.98215 14.4808 2.60642 14.928 3.40772C15.3939 4.20902 15.6269 5.14077 15.6269 6.20296C15.6269 6.91109 15.4964 7.53536 15.2355 8.07577C14.9933 8.59755 14.6858 9.02615 14.3131 9.36158C13.959 9.69701 13.605 9.9579 13.2509 10.1442C13.9777 10.4797 14.6206 11.0387 15.1796 11.8214C15.7387 12.6041 16.0182 13.5358 16.0182 14.6166C16.0182 15.7347 15.7666 16.7317 15.2635 17.6075C14.7603 18.4834 14.0149 19.1729 13.0273 19.676C12.0396 20.1605 10.819 20.4028 9.36552 20.4028H1.03571ZM4.25024 17.4398H8.91828C9.92457 17.4398 10.6886 17.1696 11.2104 16.6292C11.7322 16.0702 11.993 15.3993 11.993 14.6166C11.993 13.7967 11.7228 13.1165 11.1824 12.5761C10.6607 12.0357 9.90594 11.7655 8.91828 11.7655H4.25024V17.4398ZM4.25024 8.85844H8.63876C9.62641 8.85844 10.3625 8.6255 10.847 8.15963C11.3501 7.67512 11.6017 7.05085 11.6017 6.28682C11.6017 5.50415 11.3501 4.89852 10.847 4.46991C10.3625 4.02267 9.62641 3.79906 8.63876 3.79906H4.25024V8.85844ZM25.4534 20.6823C23.385 20.6823 21.7451 20.086 20.5338 18.8933C19.3225 17.7007 18.6703 16.0049 18.5771 13.806C18.5585 13.6197 18.5492 13.3867 18.5492 13.1072C18.5492 12.809 18.5585 12.5761 18.5771 12.4084C18.6517 11.0108 18.9685 9.7995 19.5275 8.77458C20.1052 7.74966 20.8972 6.96699 21.9035 6.42658C22.9098 5.86753 24.0931 5.58801 25.4534 5.58801C26.9629 5.58801 28.23 5.9048 29.255 6.53839C30.2799 7.15334 31.0532 8.01987 31.575 9.13796C32.0968 10.2374 32.3577 11.5139 32.3577 12.9674V13.5544C32.3577 13.7408 32.2924 13.8992 32.162 14.0296C32.0316 14.1601 31.8638 14.2253 31.6589 14.2253H22.3787C22.3787 14.2253 22.3787 14.2532 22.3787 14.3092C22.3787 14.3651 22.3787 14.4116 22.3787 14.4489C22.3973 15.1011 22.5184 15.7068 22.742 16.2658C22.9843 16.8062 23.329 17.2442 23.7763 17.5796C24.2422 17.915 24.7919 18.0827 25.4255 18.0827C25.9473 18.0827 26.3852 18.0082 26.7392 17.8591C27.0933 17.6914 27.3821 17.505 27.6058 17.3001C27.8294 17.0951 27.9878 16.9274 28.081 16.7969C28.2487 16.5733 28.3791 16.4429 28.4723 16.4056C28.5841 16.3497 28.7425 16.3217 28.9475 16.3217H31.3514C31.5377 16.3217 31.6868 16.3776 31.7986 16.4894C31.9291 16.6012 31.985 16.741 31.9663 16.9087C31.9477 17.2069 31.7893 17.5703 31.4911 17.9989C31.2116 18.4275 30.8017 18.8468 30.2612 19.2567C29.7208 19.6667 29.0407 20.0114 28.2207 20.291C27.4194 20.5519 26.497 20.6823 25.4534 20.6823ZM22.3787 11.8773H28.5561V11.7934C28.5561 11.0667 28.435 10.4331 28.1928 9.89268C27.9505 9.35226 27.5964 8.92366 27.1306 8.60687C26.6647 8.29007 26.1057 8.13168 25.4534 8.13168C24.8012 8.13168 24.2422 8.29007 23.7763 8.60687C23.3104 8.92366 22.9563 9.35226 22.7141 9.89268C22.4905 10.4331 22.3787 11.0667 22.3787 11.7934V11.8773ZM40.8314 20.6823C39.7133 20.6823 38.7536 20.5519 37.9523 20.291C37.1696 20.0301 36.5267 19.704 36.0236 19.3126C35.5204 18.9213 35.1477 18.53 34.9055 18.1386C34.6632 17.7473 34.5328 17.4212 34.5141 17.1603C34.4955 16.9553 34.5514 16.7969 34.6819 16.6851C34.8309 16.5547 34.9893 16.4894 35.1571 16.4894H37.3653C37.4398 16.4894 37.5051 16.4988 37.561 16.5174C37.6169 16.536 37.6914 16.5919 37.7846 16.6851C38.0268 16.8901 38.2784 17.1044 38.5393 17.328C38.8188 17.5516 39.1449 17.7473 39.5176 17.915C39.8903 18.0641 40.3562 18.1386 40.9152 18.1386C41.642 18.1386 42.2476 17.9989 42.7322 17.7193C43.2353 17.4212 43.4869 17.0019 43.4869 16.4615C43.4869 16.0702 43.3751 15.7534 43.1514 15.5111C42.9465 15.2689 42.5551 15.0545 41.9774 14.8682C41.3998 14.6632 40.5798 14.4489 39.5176 14.2253C38.4741 13.983 37.6075 13.6756 36.9181 13.3029C36.2286 12.9302 35.7161 12.4643 35.3807 11.9052C35.0452 11.3462 34.8775 10.694 34.8775 9.94858C34.8775 9.22182 35.0918 8.53233 35.5204 7.8801C35.9677 7.20925 36.6199 6.65952 37.4771 6.23091C38.3529 5.80231 39.4338 5.58801 40.7196 5.58801C41.7259 5.58801 42.6017 5.71845 43.3471 5.97934C44.0925 6.2216 44.7075 6.52907 45.192 6.90177C45.6951 7.27447 46.0771 7.65648 46.338 8.04782C46.5989 8.42052 46.7387 8.74663 46.7573 9.02615C46.7759 9.23114 46.72 9.39885 46.5896 9.52929C46.4591 9.6411 46.3101 9.69701 46.1423 9.69701H44.0739C43.9807 9.69701 43.8968 9.67837 43.8223 9.6411C43.7478 9.60383 43.6732 9.55725 43.5987 9.50134C43.3937 9.31499 43.1701 9.11933 42.9278 8.91434C42.6856 8.70936 42.3874 8.53233 42.0333 8.38325C41.6979 8.21553 41.2507 8.13168 40.6916 8.13168C39.9835 8.13168 39.4431 8.29007 39.0704 8.60687C38.6977 8.90502 38.5113 9.28704 38.5113 9.75291C38.5113 10.0697 38.5952 10.3492 38.7629 10.5915C38.9493 10.8151 39.3126 11.0294 39.8531 11.2344C40.3935 11.4394 41.2134 11.6537 42.3129 11.8773C43.5614 12.1009 44.5491 12.4363 45.2758 12.8836C46.0212 13.3122 46.543 13.8153 46.8412 14.393C47.1579 14.9521 47.3163 15.5763 47.3163 16.2658C47.3163 17.1044 47.0648 17.8591 46.5616 18.53C46.0771 19.2008 45.3504 19.7319 44.3813 20.1232C43.431 20.4959 42.2476 20.6823 40.8314 20.6823ZM56.716 20.4028C55.5979 20.4028 54.6568 20.2071 53.8928 19.8158C53.1288 19.4244 52.5604 18.8468 52.1877 18.0827C51.815 17.3001 51.6286 16.331 51.6286 15.1757V8.83048H49.4204C49.2341 8.83048 49.0757 8.76526 48.9452 8.63482C48.8148 8.50437 48.7496 8.34598 48.7496 8.15963V6.53839C48.7496 6.35204 48.8148 6.19364 48.9452 6.0632C49.0757 5.93275 49.2341 5.86753 49.4204 5.86753H51.6286V1.22744C51.6286 1.04109 51.6846 0.882691 51.7964 0.752247C51.9268 0.621802 52.0945 0.556579 52.2995 0.556579H54.5636C54.75 0.556579 54.9084 0.621802 55.0388 0.752247C55.1693 0.882691 55.2345 1.04109 55.2345 1.22744V5.86753H58.7286C58.9149 5.86753 59.0733 5.93275 59.2037 6.0632C59.3342 6.19364 59.3994 6.35204 59.3994 6.53839V8.15963C59.3994 8.34598 59.3342 8.50437 59.2037 8.63482C59.0733 8.76526 58.9149 8.83048 58.7286 8.83048H55.2345V14.8962C55.2345 15.6602 55.365 16.2565 55.6258 16.6851C55.9054 17.1137 56.3806 17.328 57.0514 17.328H58.9801C59.1665 17.328 59.3249 17.3932 59.4553 17.5237C59.5858 17.6541 59.651 17.8125 59.651 17.9989V19.7319C59.651 19.9183 59.5858 20.0767 59.4553 20.2071C59.3249 20.3375 59.1665 20.4028 58.9801 20.4028H56.716ZM75.6461 20.6823C73.913 20.6823 72.4595 20.4307 71.2855 19.9276C70.1301 19.4058 69.245 18.7349 68.63 17.915C68.0337 17.0764 67.7169 16.2006 67.6796 15.2875C67.6796 15.1198 67.7356 14.98 67.8474 14.8682C67.9592 14.7564 68.0989 14.7005 68.2666 14.7005H70.7544C70.9967 14.7005 71.1737 14.7564 71.2855 14.8682C71.416 14.9614 71.5278 15.0825 71.6209 15.2316C71.7327 15.5856 71.947 15.9397 72.2638 16.2938C72.5806 16.6292 73.0092 16.9087 73.5496 17.1323C74.1087 17.356 74.8075 17.4678 75.6461 17.4678C76.9878 17.4678 77.9848 17.2442 78.637 16.7969C79.3078 16.3497 79.6433 15.744 79.6433 14.98C79.6433 14.4396 79.4662 14.011 79.1122 13.6942C78.7581 13.3588 78.2084 13.0606 77.463 12.7997C76.7362 12.5202 75.7672 12.2314 74.5559 11.9332C73.1583 11.5978 71.9843 11.1971 71.0339 10.7312C70.1022 10.2467 69.3941 9.6411 68.9096 8.91434C68.4437 8.18758 68.2107 7.26515 68.2107 6.14706C68.2107 5.06623 68.4996 4.10653 69.0773 3.26796C69.6736 2.42939 70.5122 1.76785 71.593 1.28334C72.6924 0.798834 73.9969 0.556579 75.5063 0.556579C76.7176 0.556579 77.7891 0.724294 78.7208 1.05972C79.6526 1.37652 80.4259 1.80512 81.0409 2.34553C81.6558 2.86731 82.1217 3.43567 82.4385 4.05063C82.7739 4.64694 82.951 5.23394 82.9696 5.81163C82.9696 5.96071 82.9137 6.10047 82.8019 6.23091C82.7087 6.34272 82.569 6.39863 82.3826 6.39863H79.783C79.634 6.39863 79.4849 6.36136 79.3358 6.28682C79.1867 6.21228 79.0656 6.07252 78.9724 5.86753C78.8606 5.28985 78.4972 4.79602 77.8823 4.38606C77.2673 3.97609 76.4753 3.7711 75.5063 3.7711C74.5 3.7711 73.6894 3.95745 73.0745 4.33015C72.4595 4.70285 72.152 5.28053 72.152 6.0632C72.152 6.58498 72.3011 7.0229 72.5993 7.37696C72.9161 7.71239 73.4099 8.01055 74.0807 8.27144C74.7702 8.53233 75.674 8.81185 76.7921 9.11001C78.3761 9.46407 79.6712 9.87404 80.6775 10.3399C81.6838 10.8058 82.4199 11.4021 82.8857 12.1289C83.3516 12.837 83.5846 13.7408 83.5846 14.8402C83.5846 16.0702 83.2491 17.123 82.5783 17.9989C81.926 18.8561 81.0036 19.5176 79.811 19.9835C78.6183 20.4494 77.23 20.6823 75.6461 20.6823ZM92.7138 20.6823C90.6454 20.6823 89.0055 20.086 87.7942 18.8933C86.583 17.7007 85.9307 16.0049 85.8376 13.806C85.8189 13.6197 85.8096 13.3867 85.8096 13.1072C85.8096 12.809 85.8189 12.5761 85.8376 12.4084C85.9121 11.0108 86.2289 9.7995 86.7879 8.77458C87.3656 7.74966 88.1576 6.96699 89.1639 6.42658C90.1702 5.86753 91.3535 5.58801 92.7138 5.58801C94.2233 5.58801 95.4905 5.9048 96.5154 6.53839C97.5403 7.15334 98.3136 8.01987 98.8354 9.13796C99.3572 10.2374 99.6181 11.5139 99.6181 12.9674V13.5544C99.6181 13.7408 99.5529 13.8992 99.4224 14.0296C99.292 14.1601 99.1243 14.2253 98.9193 14.2253H89.6391C89.6391 14.2253 89.6391 14.2532 89.6391 14.3092C89.6391 14.3651 89.6391 14.4116 89.6391 14.4489C89.6577 15.1011 89.7788 15.7068 90.0025 16.2658C90.2447 16.8062 90.5895 17.2442 91.0367 17.5796C91.5026 17.915 92.0523 18.0827 92.6859 18.0827C93.2077 18.0827 93.6456 18.0082 93.9997 17.8591C94.3537 17.6914 94.6426 17.505 94.8662 17.3001C95.0898 17.0951 95.2482 16.9274 95.3414 16.7969C95.5091 16.5733 95.6395 16.4429 95.7327 16.4056C95.8445 16.3497 96.0029 16.3217 96.2079 16.3217H98.6118C98.7982 16.3217 98.9472 16.3776 99.059 16.4894C99.1895 16.6012 99.2454 16.741 99.2268 16.9087C99.2081 17.2069 99.0497 17.5703 98.7516 17.9989C98.472 18.4275 98.0621 18.8468 97.5217 19.2567C96.9812 19.6667 96.3011 20.0114 95.4811 20.291C94.6798 20.5519 93.7574 20.6823 92.7138 20.6823ZM89.6391 11.8773H95.8166V11.7934C95.8166 11.0667 95.6954 10.4331 95.4532 9.89268C95.2109 9.35226 94.8569 8.92366 94.391 8.60687C93.9251 8.29007 93.3661 8.13168 92.7138 8.13168C92.0616 8.13168 91.5026 8.29007 91.0367 8.60687C90.5708 8.92366 90.2168 9.35226 89.9745 9.89268C89.7509 10.4331 89.6391 11.0667 89.6391 11.7934V11.8773ZM103.284 20.4028C103.098 20.4028 102.939 20.3375 102.809 20.2071C102.678 20.0767 102.613 19.9183 102.613 19.7319V1.22744C102.613 1.04109 102.678 0.882691 102.809 0.752247C102.939 0.621802 103.098 0.556579 103.284 0.556579H105.604C105.79 0.556579 105.949 0.621802 106.079 0.752247C106.21 0.882691 106.275 1.04109 106.275 1.22744V19.7319C106.275 19.9183 106.21 20.0767 106.079 20.2071C105.949 20.3375 105.79 20.4028 105.604 20.4028H103.284ZM110.682 20.4028C110.495 20.4028 110.337 20.3375 110.206 20.2071C110.076 20.0767 110.011 19.9183 110.011 19.7319V1.22744C110.011 1.04109 110.076 0.882691 110.206 0.752247C110.337 0.621802 110.495 0.556579 110.682 0.556579H113.002C113.188 0.556579 113.346 0.621802 113.477 0.752247C113.607 0.882691 113.672 1.04109 113.672 1.22744V19.7319C113.672 19.9183 113.607 20.0767 113.477 20.2071C113.346 20.3375 113.188 20.4028 113.002 20.4028H110.682ZM123.642 20.6823C121.573 20.6823 119.933 20.086 118.722 18.8933C117.511 17.7007 116.859 16.0049 116.765 13.806C116.747 13.6197 116.737 13.3867 116.737 13.1072C116.737 12.809 116.747 12.5761 116.765 12.4084C116.84 11.0108 117.157 9.7995 117.716 8.77458C118.293 7.74966 119.085 6.96699 120.092 6.42658C121.098 5.86753 122.281 5.58801 123.642 5.58801C125.151 5.58801 126.418 5.9048 127.443 6.53839C128.468 7.15334 129.241 8.01987 129.763 9.13796C130.285 10.2374 130.546 11.5139 130.546 12.9674V13.5544C130.546 13.7408 130.481 13.8992 130.35 14.0296C130.22 14.1601 130.052 14.2253 129.847 14.2253H120.567C120.567 14.2253 120.567 14.2532 120.567 14.3092C120.567 14.3651 120.567 14.4116 120.567 14.4489C120.586 15.1011 120.707 15.7068 120.93 16.2658C121.173 16.8062 121.517 17.2442 121.964 17.5796C122.43 17.915 122.98 18.0827 123.614 18.0827C124.135 18.0827 124.573 18.0082 124.927 17.8591C125.282 17.6914 125.57 17.505 125.794 17.3001C126.018 17.0951 126.176 16.9274 126.269 16.7969C126.437 16.5733 126.567 16.4429 126.66 16.4056C126.772 16.3497 126.931 16.3217 127.136 16.3217H129.54C129.726 16.3217 129.875 16.3776 129.987 16.4894C130.117 16.6012 130.173 16.741 130.155 16.9087C130.136 17.2069 129.978 17.5703 129.679 17.9989C129.4 18.4275 128.99 18.8468 128.449 19.2567C127.909 19.6667 127.229 20.0114 126.409 20.291C125.608 20.5519 124.685 20.6823 123.642 20.6823ZM120.567 11.8773H126.744V11.7934C126.744 11.0667 126.623 10.4331 126.381 9.89268C126.139 9.35226 125.785 8.92366 125.319 8.60687C124.853 8.29007 124.294 8.13168 123.642 8.13168C122.989 8.13168 122.43 8.29007 121.964 8.60687C121.499 8.92366 121.145 9.35226 120.902 9.89268C120.679 10.4331 120.567 11.0667 120.567 11.7934V11.8773ZM134.184 20.4028C133.997 20.4028 133.839 20.3375 133.709 20.2071C133.578 20.0767 133.513 19.9183 133.513 19.7319V6.56634C133.513 6.36136 133.578 6.19364 133.709 6.0632C133.839 5.93275 133.997 5.86753 134.184 5.86753H136.448C136.634 5.86753 136.793 5.93275 136.923 6.0632C137.072 6.19364 137.147 6.36136 137.147 6.56634V7.71239C137.575 7.11607 138.125 6.65952 138.796 6.34272C139.485 6.02593 140.277 5.86753 141.172 5.86753H142.318C142.523 5.86753 142.681 5.93275 142.793 6.0632C142.924 6.19364 142.989 6.35204 142.989 6.53839V8.55096C142.989 8.73731 142.924 8.89571 142.793 9.02615C142.681 9.1566 142.523 9.22182 142.318 9.22182H140.138C139.243 9.22182 138.544 9.47339 138.041 9.97653C137.557 10.4797 137.314 11.1692 137.314 12.045V19.7319C137.314 19.9183 137.249 20.0767 137.119 20.2071C136.988 20.3375 136.821 20.4028 136.616 20.4028H134.184ZM150.676 20.6823C149.557 20.6823 148.598 20.5519 147.796 20.291C147.014 20.0301 146.371 19.704 145.868 19.3126C145.365 18.9213 144.992 18.53 144.75 18.1386C144.507 17.7473 144.377 17.4212 144.358 17.1603C144.34 16.9553 144.396 16.7969 144.526 16.6851C144.675 16.5547 144.833 16.4894 145.001 16.4894H147.209C147.284 16.4894 147.349 16.4988 147.405 16.5174C147.461 16.536 147.536 16.5919 147.629 16.6851C147.871 16.8901 148.123 17.1044 148.383 17.328C148.663 17.5516 148.989 17.7473 149.362 17.915C149.734 18.0641 150.2 18.1386 150.759 18.1386C151.486 18.1386 152.092 17.9989 152.576 17.7193C153.079 17.4212 153.331 17.0019 153.331 16.4615C153.331 16.0702 153.219 15.7534 152.996 15.5111C152.791 15.2689 152.399 15.0545 151.822 14.8682C151.244 14.6632 150.424 14.4489 149.362 14.2253C148.318 13.983 147.452 13.6756 146.762 13.3029C146.073 12.9302 145.56 12.4643 145.225 11.9052C144.889 11.3462 144.722 10.694 144.722 9.94858C144.722 9.22182 144.936 8.53233 145.365 7.8801C145.812 7.20925 146.464 6.65952 147.321 6.23091C148.197 5.80231 149.278 5.58801 150.564 5.58801C151.57 5.58801 152.446 5.71845 153.191 5.97934C153.937 6.2216 154.552 6.52907 155.036 6.90177C155.539 7.27447 155.921 7.65648 156.182 8.04782C156.443 8.42052 156.583 8.74663 156.601 9.02615C156.62 9.23114 156.564 9.39885 156.434 9.52929C156.303 9.6411 156.154 9.69701 155.986 9.69701H153.918C153.825 9.69701 153.741 9.67837 153.666 9.6411C153.592 9.60383 153.517 9.55725 153.443 9.50134C153.238 9.31499 153.014 9.11933 152.772 8.91434C152.53 8.70936 152.232 8.53233 151.877 8.38325C151.542 8.21553 151.095 8.13168 150.536 8.13168C149.828 8.13168 149.287 8.29007 148.915 8.60687C148.542 8.90502 148.355 9.28704 148.355 9.75291C148.355 10.0697 148.439 10.3492 148.607 10.5915C148.793 10.8151 149.157 11.0294 149.697 11.2344C150.238 11.4394 151.058 11.6537 152.157 11.8773C153.406 12.1009 154.393 12.4363 155.12 12.8836C155.865 13.3122 156.387 13.8153 156.685 14.393C157.002 14.9521 157.16 15.5763 157.16 16.2658C157.16 17.1044 156.909 17.8591 156.406 18.53C155.921 19.2008 155.194 19.7319 154.225 20.1232C153.275 20.4959 152.092 20.6823 150.676 20.6823Z" fill="#FFA503"/>
</svg>
