<svg width="519" height="171" viewBox="0 0 519 171" fill="none" xmlns="http://www.w3.org/2000/svg">
<path d="M4.752 45C4.4 45 4.112 44.888 3.888 44.664C3.664 44.44 3.552 44.152 3.552 43.8V12.6C3.552 12.248 3.664 11.96 3.888 11.736C4.112 11.512 4.4 11.4 4.752 11.4H16.8C20 11.4 22.672 11.912 24.816 12.936C26.96 13.928 28.592 15.4 29.712 17.352C30.864 19.272 31.472 21.656 31.536 24.504C31.568 25.912 31.584 27.144 31.584 28.2C31.584 29.256 31.568 30.472 31.536 31.848C31.44 34.824 30.848 37.288 29.76 39.24C28.672 41.192 27.072 42.648 24.96 43.608C22.848 44.536 20.208 45 17.04 45H4.752ZM11.184 38.808H16.8C18.4 38.808 19.712 38.568 20.736 38.088C21.76 37.608 22.512 36.856 22.992 35.832C23.504 34.776 23.776 33.416 23.808 31.752C23.84 30.824 23.856 29.992 23.856 29.256C23.888 28.52 23.888 27.784 23.856 27.048C23.856 26.312 23.84 25.496 23.808 24.6C23.744 22.2 23.12 20.44 21.936 19.32C20.784 18.168 18.992 17.592 16.56 17.592H11.184V38.808ZM38.2073 45C37.8873 45 37.6153 44.888 37.3913 44.664C37.1673 44.44 37.0553 44.152 37.0553 43.8V21.24C37.0553 20.888 37.1673 20.6 37.3913 20.376C37.6153 20.152 37.8873 20.04 38.2073 20.04H43.0073C43.3593 20.04 43.6473 20.152 43.8713 20.376C44.0953 20.6 44.2073 20.888 44.2073 21.24V43.8C44.2073 44.152 44.0953 44.44 43.8713 44.664C43.6473 44.888 43.3593 45 43.0073 45H38.2073ZM38.0633 16.2C37.7433 16.2 37.4713 16.088 37.2473 15.864C37.0233 15.64 36.9113 15.352 36.9113 15V11.16C36.9113 10.808 37.0233 10.52 37.2473 10.296C37.4713 10.04 37.7433 9.912 38.0633 9.912H43.1033C43.4553 9.912 43.7433 10.04 43.9673 10.296C44.2233 10.52 44.3513 10.808 44.3513 11.16V15C44.3513 15.352 44.2233 15.64 43.9673 15.864C43.7433 16.088 43.4553 16.2 43.1033 16.2H38.0633ZM60.8171 45.48C58.8331 45.48 57.1211 45.256 55.6811 44.808C54.2731 44.328 53.1211 43.752 52.2251 43.08C51.3611 42.408 50.7051 41.736 50.2571 41.064C49.8411 40.36 49.6171 39.768 49.5851 39.288C49.5531 38.936 49.6651 38.648 49.9211 38.424C50.1771 38.2 50.4331 38.088 50.6891 38.088H55.3451C55.4411 38.088 55.5371 38.104 55.6331 38.136C55.7291 38.168 55.8251 38.248 55.9211 38.376C56.3371 38.664 56.7691 39 57.2171 39.384C57.6651 39.736 58.1771 40.04 58.7531 40.296C59.3611 40.552 60.1131 40.68 61.0091 40.68C62.0651 40.68 62.9611 40.472 63.6971 40.056C64.4331 39.608 64.8011 38.984 64.8011 38.184C64.8011 37.608 64.6251 37.128 64.2731 36.744C63.9531 36.36 63.3291 36.008 62.4011 35.688C61.4731 35.368 60.0971 35.016 58.2731 34.632C56.5451 34.248 55.0731 33.736 53.8571 33.096C52.6411 32.456 51.7291 31.656 51.1211 30.696C50.5131 29.704 50.2091 28.52 50.2091 27.144C50.2091 25.896 50.5931 24.696 51.3611 23.544C52.1611 22.392 53.3291 21.448 54.8651 20.712C56.4011 19.944 58.3211 19.56 60.6251 19.56C62.3851 19.56 63.9211 19.784 65.2331 20.232C66.5771 20.648 67.6971 21.192 68.5931 21.864C69.4891 22.504 70.1611 23.176 70.6091 23.88C71.0891 24.552 71.3451 25.144 71.3771 25.656C71.4091 25.976 71.3131 26.248 71.0891 26.472C70.8651 26.696 70.6091 26.808 70.3211 26.808H66.0491C65.8891 26.808 65.7451 26.792 65.6171 26.76C65.4891 26.696 65.3771 26.616 65.2811 26.52C64.8971 26.264 64.4971 25.976 64.0811 25.656C63.6971 25.304 63.2331 25 62.6891 24.744C62.1451 24.488 61.4411 24.36 60.5771 24.36C59.5211 24.36 58.7051 24.6 58.1291 25.08C57.5851 25.528 57.3131 26.104 57.3131 26.808C57.3131 27.256 57.4571 27.672 57.7451 28.056C58.0331 28.44 58.6251 28.792 59.5211 29.112C60.4171 29.432 61.7771 29.768 63.6011 30.12C65.7771 30.504 67.5051 31.08 68.7851 31.848C70.0651 32.616 70.9771 33.512 71.5211 34.536C72.0971 35.528 72.3851 36.6 72.3851 37.752C72.3851 39.256 71.9371 40.6 71.0411 41.784C70.1451 42.936 68.8331 43.848 67.1051 44.52C65.4091 45.16 63.3131 45.48 60.8171 45.48ZM88.0807 45.48C85.7448 45.48 83.6808 45.048 81.8888 44.184C80.1288 43.32 78.7368 42.072 77.7128 40.44C76.6888 38.776 76.1288 36.792 76.0328 34.488C76.0008 33.976 75.9848 33.336 75.9848 32.568C75.9848 31.768 76.0008 31.112 76.0328 30.6C76.1288 28.264 76.6728 26.28 77.6648 24.648C78.6888 22.984 80.0968 21.72 81.8888 20.856C83.6808 19.992 85.7448 19.56 88.0807 19.56C90.2248 19.56 92.0488 19.864 93.5528 20.472C95.0568 21.048 96.2888 21.784 97.2488 22.68C98.2088 23.576 98.9128 24.52 99.3608 25.512C99.8408 26.472 100.097 27.32 100.129 28.056C100.161 28.376 100.049 28.664 99.7928 28.92C99.5688 29.144 99.2968 29.256 98.9768 29.256H93.8408C93.5208 29.256 93.2648 29.176 93.0728 29.016C92.9128 28.824 92.7528 28.568 92.5928 28.248C92.1448 27.128 91.5688 26.328 90.8648 25.848C90.1608 25.368 89.2808 25.128 88.2248 25.128C86.7848 25.128 85.6488 25.592 84.8168 26.52C83.9848 27.448 83.5368 28.888 83.4728 30.84C83.4408 32.088 83.4408 33.224 83.4728 34.248C83.5688 36.232 84.0168 37.672 84.8168 38.568C85.6488 39.464 86.7848 39.912 88.2248 39.912C89.3448 39.912 90.2408 39.672 90.9128 39.192C91.5848 38.712 92.1448 37.912 92.5928 36.792C92.7208 36.472 92.8808 36.232 93.0728 36.072C93.2648 35.88 93.5208 35.784 93.8408 35.784H98.9768C99.2968 35.784 99.5688 35.912 99.7928 36.168C100.049 36.392 100.161 36.664 100.129 36.984C100.097 37.528 99.9368 38.168 99.6488 38.904C99.3928 39.64 98.9608 40.392 98.3528 41.16C97.7768 41.928 97.0248 42.648 96.0968 43.32C95.1688 43.96 94.0328 44.488 92.6888 44.904C91.3768 45.288 89.8408 45.48 88.0807 45.48ZM116.261 45.48C113.605 45.48 111.381 45.048 109.589 44.184C107.797 43.288 106.421 42.024 105.461 40.392C104.533 38.76 104.021 36.856 103.925 34.68C103.893 34.04 103.877 33.32 103.877 32.52C103.877 31.688 103.893 30.968 103.925 30.36C104.021 28.152 104.565 26.248 105.557 24.648C106.549 23.016 107.941 21.768 109.733 20.904C111.525 20.008 113.701 19.56 116.261 19.56C118.789 19.56 120.949 20.008 122.741 20.904C124.533 21.768 125.925 23.016 126.917 24.648C127.909 26.248 128.453 28.152 128.549 30.36C128.613 30.968 128.645 31.688 128.645 32.52C128.645 33.32 128.613 34.04 128.549 34.68C128.453 36.856 127.925 38.76 126.965 40.392C126.037 42.024 124.677 43.288 122.885 44.184C121.093 45.048 118.885 45.48 116.261 45.48ZM116.261 40.2C117.829 40.2 119.013 39.72 119.813 38.76C120.613 37.768 121.045 36.328 121.109 34.44C121.141 33.96 121.157 33.32 121.157 32.52C121.157 31.72 121.141 31.08 121.109 30.6C121.045 28.744 120.613 27.32 119.813 26.328C119.013 25.336 117.829 24.84 116.261 24.84C114.693 24.84 113.493 25.336 112.661 26.328C111.861 27.32 111.429 28.744 111.365 30.6C111.333 31.08 111.317 31.72 111.317 32.52C111.317 33.32 111.333 33.96 111.365 34.44C111.429 36.328 111.861 37.768 112.661 38.76C113.493 39.72 114.693 40.2 116.261 40.2ZM141.559 45C141.079 45 140.711 44.888 140.455 44.664C140.231 44.408 140.039 44.12 139.879 43.8L130.855 21.528C130.791 21.4 130.759 21.256 130.759 21.096C130.759 20.808 130.855 20.568 131.047 20.376C131.271 20.152 131.527 20.04 131.815 20.04H136.471C136.887 20.04 137.191 20.152 137.383 20.376C137.607 20.6 137.751 20.808 137.815 21L143.719 36.84L149.623 21C149.719 20.808 149.863 20.6 150.055 20.376C150.279 20.152 150.583 20.04 150.967 20.04H155.623C155.911 20.04 156.151 20.152 156.343 20.376C156.567 20.568 156.679 20.808 156.679 21.096C156.679 21.256 156.663 21.4 156.631 21.528L147.559 43.8C147.431 44.12 147.239 44.408 146.983 44.664C146.727 44.888 146.359 45 145.879 45H141.559ZM170.957 45.48C167.277 45.48 164.349 44.456 162.173 42.408C160.029 40.36 158.893 37.384 158.765 33.48C158.765 33.224 158.765 32.888 158.765 32.472C158.765 32.024 158.765 31.672 158.765 31.416C158.893 28.952 159.453 26.84 160.445 25.08C161.437 23.288 162.829 21.928 164.621 21C166.413 20.04 168.509 19.56 170.909 19.56C173.597 19.56 175.837 20.12 177.629 21.24C179.453 22.328 180.813 23.832 181.709 25.752C182.637 27.64 183.101 29.816 183.101 32.28V33.384C183.101 33.704 182.973 33.976 182.717 34.2C182.493 34.424 182.221 34.536 181.901 34.536H166.205C166.205 34.568 166.205 34.632 166.205 34.728C166.205 34.792 166.205 34.856 166.205 34.92C166.237 35.944 166.429 36.888 166.781 37.752C167.165 38.584 167.693 39.256 168.365 39.768C169.069 40.28 169.901 40.536 170.861 40.536C171.661 40.536 172.317 40.424 172.829 40.2C173.341 39.976 173.757 39.704 174.077 39.384C174.429 39.064 174.685 38.792 174.845 38.568C175.133 38.248 175.357 38.056 175.517 37.992C175.709 37.896 175.997 37.848 176.381 37.848H181.373C181.693 37.848 181.949 37.944 182.141 38.136C182.365 38.296 182.461 38.536 182.429 38.856C182.397 39.368 182.125 40.008 181.613 40.776C181.133 41.512 180.413 42.248 179.453 42.984C178.493 43.688 177.293 44.28 175.853 44.76C174.445 45.24 172.813 45.48 170.957 45.48ZM166.205 30.168H175.613V30.072C175.613 28.92 175.421 27.928 175.037 27.096C174.685 26.232 174.157 25.56 173.453 25.08C172.749 24.6 171.901 24.36 170.909 24.36C169.917 24.36 169.069 24.6 168.365 25.08C167.661 25.56 167.117 26.232 166.733 27.096C166.381 27.928 166.205 28.92 166.205 30.072V30.168ZM189.051 45C188.731 45 188.459 44.888 188.235 44.664C188.011 44.44 187.899 44.152 187.899 43.8V21.24C187.899 20.92 188.011 20.648 188.235 20.424C188.459 20.168 188.731 20.04 189.051 20.04H193.755C194.075 20.04 194.347 20.168 194.571 20.424C194.827 20.648 194.955 20.92 194.955 21.24V23.16C195.755 22.168 196.731 21.4 197.883 20.856C199.067 20.312 200.427 20.04 201.963 20.04H204.027C204.347 20.04 204.619 20.152 204.843 20.376C205.067 20.6 205.179 20.888 205.179 21.24V25.368C205.179 25.72 205.067 26.008 204.843 26.232C204.619 26.456 204.347 26.568 204.027 26.568H199.803C198.395 26.568 197.291 26.968 196.491 27.768C195.691 28.536 195.291 29.64 195.291 31.08V43.8C195.291 44.152 195.179 44.44 194.955 44.664C194.731 44.888 194.443 45 194.091 45H189.051Z" fill="#FFA503"/>
<path d="M228.52 45.48C226.664 45.48 225.016 45.064 223.576 44.232C222.168 43.368 221.064 42.136 220.264 40.536C219.496 38.904 219.112 36.936 219.112 34.632V21.24C219.112 20.888 219.224 20.6 219.448 20.376C219.672 20.152 219.944 20.04 220.264 20.04H225.352C225.704 20.04 225.992 20.152 226.216 20.376C226.44 20.6 226.552 20.888 226.552 21.24V34.344C226.552 37.928 228.12 39.72 231.256 39.72C232.76 39.72 233.944 39.256 234.808 38.328C235.704 37.368 236.152 36.04 236.152 34.344V21.24C236.152 20.888 236.264 20.6 236.488 20.376C236.712 20.152 237 20.04 237.352 20.04H242.44C242.76 20.04 243.032 20.152 243.256 20.376C243.48 20.6 243.592 20.888 243.592 21.24V43.8C243.592 44.152 243.48 44.44 243.256 44.664C243.032 44.888 242.76 45 242.44 45H237.736C237.384 45 237.096 44.888 236.872 44.664C236.648 44.44 236.536 44.152 236.536 43.8V41.928C235.704 43.08 234.632 43.96 233.32 44.568C232.008 45.176 230.408 45.48 228.52 45.48ZM250.785 45C250.465 45 250.193 44.888 249.969 44.664C249.745 44.44 249.633 44.152 249.633 43.8V21.24C249.633 20.888 249.745 20.6 249.969 20.376C250.193 20.152 250.465 20.04 250.785 20.04H255.489C255.841 20.04 256.129 20.152 256.353 20.376C256.577 20.6 256.689 20.888 256.689 21.24V23.112C257.521 22.088 258.593 21.24 259.905 20.568C261.217 19.896 262.817 19.56 264.705 19.56C266.593 19.56 268.241 19.992 269.649 20.856C271.089 21.688 272.209 22.92 273.009 24.552C273.841 26.152 274.257 28.104 274.257 30.408V43.8C274.257 44.152 274.129 44.44 273.873 44.664C273.649 44.888 273.377 45 273.057 45H267.969C267.617 45 267.329 44.888 267.105 44.664C266.881 44.44 266.769 44.152 266.769 43.8V30.696C266.769 29 266.353 27.688 265.521 26.76C264.721 25.8 263.537 25.32 261.969 25.32C260.465 25.32 259.265 25.8 258.369 26.76C257.473 27.688 257.025 29 257.025 30.696V43.8C257.025 44.152 256.913 44.44 256.689 44.664C256.465 44.888 256.193 45 255.873 45H250.785ZM281.16 45C280.84 45 280.568 44.888 280.344 44.664C280.12 44.44 280.008 44.152 280.008 43.8V21.24C280.008 20.888 280.12 20.6 280.344 20.376C280.568 20.152 280.84 20.04 281.16 20.04H285.96C286.312 20.04 286.6 20.152 286.824 20.376C287.048 20.6 287.16 20.888 287.16 21.24V43.8C287.16 44.152 287.048 44.44 286.824 44.664C286.6 44.888 286.312 45 285.96 45H281.16ZM281.016 16.2C280.696 16.2 280.424 16.088 280.2 15.864C279.976 15.64 279.864 15.352 279.864 15V11.16C279.864 10.808 279.976 10.52 280.2 10.296C280.424 10.04 280.696 9.912 281.016 9.912H286.056C286.408 9.912 286.696 10.04 286.92 10.296C287.176 10.52 287.304 10.808 287.304 11.16V15C287.304 15.352 287.176 15.64 286.92 15.864C286.696 16.088 286.408 16.2 286.056 16.2H281.016ZM310.844 54.12C310.524 54.12 310.252 54.008 310.028 53.784C309.804 53.56 309.692 53.272 309.692 52.92V42.168C308.924 43.192 307.932 44.008 306.716 44.616C305.532 45.192 304.124 45.48 302.492 45.48C300.86 45.48 299.42 45.208 298.172 44.664C296.924 44.12 295.868 43.352 295.004 42.36C294.14 41.368 293.484 40.184 293.036 38.808C292.588 37.432 292.332 35.928 292.268 34.296C292.236 33.656 292.22 33.064 292.22 32.52C292.22 31.976 292.236 31.4 292.268 30.792C292.332 29.064 292.588 27.512 293.036 26.136C293.516 24.76 294.172 23.592 295.004 22.632C295.868 21.64 296.924 20.888 298.172 20.376C299.42 19.832 300.86 19.56 302.492 19.56C304.316 19.56 305.836 19.896 307.052 20.568C308.3 21.208 309.292 22.04 310.028 23.064V21.24C310.028 20.888 310.14 20.6 310.364 20.376C310.588 20.152 310.876 20.04 311.228 20.04H315.788C316.14 20.04 316.428 20.152 316.652 20.376C316.876 20.6 316.988 20.888 316.988 21.24V52.92C316.988 53.272 316.876 53.56 316.652 53.784C316.428 54.008 316.14 54.12 315.788 54.12H310.844ZM304.652 39.72C305.804 39.72 306.732 39.464 307.436 38.952C308.172 38.44 308.716 37.8 309.068 37.032C309.452 36.232 309.66 35.384 309.692 34.488C309.724 33.88 309.74 33.272 309.74 32.664C309.74 32.056 309.724 31.464 309.692 30.888C309.66 29.928 309.468 29.032 309.116 28.2C308.796 27.368 308.268 26.68 307.532 26.136C306.828 25.592 305.868 25.32 304.652 25.32C303.468 25.32 302.508 25.592 301.772 26.136C301.068 26.648 300.556 27.336 300.236 28.2C299.948 29.064 299.772 30.008 299.708 31.032C299.644 32.024 299.644 33.016 299.708 34.008C299.772 35.032 299.948 35.976 300.236 36.84C300.556 37.704 301.068 38.408 301.772 38.952C302.508 39.464 303.468 39.72 304.652 39.72ZM332.208 45.48C330.352 45.48 328.704 45.064 327.264 44.232C325.856 43.368 324.752 42.136 323.952 40.536C323.184 38.904 322.8 36.936 322.8 34.632V21.24C322.8 20.888 322.912 20.6 323.136 20.376C323.36 20.152 323.632 20.04 323.952 20.04H329.04C329.392 20.04 329.68 20.152 329.904 20.376C330.128 20.6 330.24 20.888 330.24 21.24V34.344C330.24 37.928 331.808 39.72 334.944 39.72C336.448 39.72 337.632 39.256 338.496 38.328C339.392 37.368 339.84 36.04 339.84 34.344V21.24C339.84 20.888 339.952 20.6 340.176 20.376C340.4 20.152 340.688 20.04 341.04 20.04H346.128C346.448 20.04 346.72 20.152 346.944 20.376C347.168 20.6 347.28 20.888 347.28 21.24V43.8C347.28 44.152 347.168 44.44 346.944 44.664C346.72 44.888 346.448 45 346.128 45H341.424C341.072 45 340.784 44.888 340.56 44.664C340.336 44.44 340.224 44.152 340.224 43.8V41.928C339.392 43.08 338.32 43.96 337.008 44.568C335.696 45.176 334.096 45.48 332.208 45.48ZM364.457 45.48C360.777 45.48 357.849 44.456 355.673 42.408C353.529 40.36 352.393 37.384 352.265 33.48C352.265 33.224 352.265 32.888 352.265 32.472C352.265 32.024 352.265 31.672 352.265 31.416C352.393 28.952 352.953 26.84 353.945 25.08C354.937 23.288 356.329 21.928 358.121 21C359.913 20.04 362.009 19.56 364.409 19.56C367.097 19.56 369.337 20.12 371.129 21.24C372.953 22.328 374.313 23.832 375.209 25.752C376.137 27.64 376.601 29.816 376.601 32.28V33.384C376.601 33.704 376.473 33.976 376.217 34.2C375.993 34.424 375.721 34.536 375.401 34.536H359.705C359.705 34.568 359.705 34.632 359.705 34.728C359.705 34.792 359.705 34.856 359.705 34.92C359.737 35.944 359.929 36.888 360.281 37.752C360.665 38.584 361.193 39.256 361.865 39.768C362.569 40.28 363.401 40.536 364.361 40.536C365.161 40.536 365.817 40.424 366.329 40.2C366.841 39.976 367.257 39.704 367.577 39.384C367.929 39.064 368.185 38.792 368.345 38.568C368.633 38.248 368.857 38.056 369.017 37.992C369.209 37.896 369.497 37.848 369.881 37.848H374.873C375.193 37.848 375.449 37.944 375.641 38.136C375.865 38.296 375.961 38.536 375.929 38.856C375.897 39.368 375.625 40.008 375.113 40.776C374.633 41.512 373.913 42.248 372.953 42.984C371.993 43.688 370.793 44.28 369.353 44.76C367.945 45.24 366.313 45.48 364.457 45.48ZM359.705 30.168H369.113V30.072C369.113 28.92 368.921 27.928 368.537 27.096C368.185 26.232 367.657 25.56 366.953 25.08C366.249 24.6 365.401 24.36 364.409 24.36C363.417 24.36 362.569 24.6 361.865 25.08C361.161 25.56 360.617 26.232 360.233 27.096C359.881 27.928 359.705 28.92 359.705 30.072V30.168ZM393.721 45C393.369 45 393.081 44.888 392.857 44.664C392.633 44.44 392.521 44.152 392.521 43.8V12.6C392.521 12.248 392.633 11.96 392.857 11.736C393.081 11.512 393.369 11.4 393.721 11.4H398.089C398.569 11.4 398.921 11.512 399.145 11.736C399.369 11.96 399.513 12.136 399.577 12.264L412.393 32.28V12.6C412.393 12.248 412.505 11.96 412.729 11.736C412.953 11.512 413.225 11.4 413.545 11.4H418.441C418.793 11.4 419.081 11.512 419.305 11.736C419.529 11.96 419.641 12.248 419.641 12.6V43.8C419.641 44.12 419.529 44.408 419.305 44.664C419.081 44.888 418.793 45 418.441 45H414.025C413.545 45 413.193 44.888 412.969 44.664C412.777 44.408 412.633 44.232 412.537 44.136L399.769 24.744V43.8C399.769 44.152 399.657 44.44 399.433 44.664C399.209 44.888 398.921 45 398.569 45H393.721ZM427.94 45C427.588 45 427.3 44.888 427.076 44.664C426.852 44.44 426.74 44.152 426.74 43.8V12.6C426.74 12.248 426.852 11.96 427.076 11.736C427.3 11.512 427.588 11.4 427.94 11.4H449.348C449.7 11.4 449.988 11.512 450.212 11.736C450.436 11.96 450.548 12.248 450.548 12.6V16.68C450.548 17.032 450.436 17.32 450.212 17.544C449.988 17.768 449.7 17.88 449.348 17.88H434.228V25.992H448.388C448.74 25.992 449.028 26.104 449.252 26.328C449.476 26.552 449.588 26.84 449.588 27.192V31.272C449.588 31.592 449.476 31.864 449.252 32.088C449.028 32.312 448.74 32.424 448.388 32.424H434.228V43.8C434.228 44.152 434.116 44.44 433.892 44.664C433.668 44.888 433.38 45 433.028 45H427.94ZM464.582 45C464.23 45 463.942 44.888 463.718 44.664C463.494 44.44 463.382 44.152 463.382 43.8V18.072H454.646C454.326 18.072 454.054 17.96 453.83 17.736C453.606 17.512 453.494 17.24 453.494 16.92V12.6C453.494 12.248 453.606 11.96 453.83 11.736C454.054 11.512 454.326 11.4 454.646 11.4H479.798C480.15 11.4 480.438 11.512 480.661 11.736C480.886 11.96 480.998 12.248 480.998 12.6V16.92C480.998 17.24 480.886 17.512 480.661 17.736C480.438 17.96 480.15 18.072 479.798 18.072H471.11V43.8C471.11 44.152 470.998 44.44 470.774 44.664C470.55 44.888 470.262 45 469.91 45H464.582ZM490.989 45.48C489.005 45.48 487.293 45.256 485.853 44.808C484.445 44.328 483.293 43.752 482.397 43.08C481.533 42.408 480.877 41.736 480.429 41.064C480.013 40.36 479.789 39.768 479.757 39.288C479.725 38.936 479.837 38.648 480.093 38.424C480.349 38.2 480.605 38.088 480.861 38.088H485.517C485.613 38.088 485.709 38.104 485.805 38.136C485.901 38.168 485.997 38.248 486.093 38.376C486.509 38.664 486.941 39 487.389 39.384C487.837 39.736 488.349 40.04 488.925 40.296C489.533 40.552 490.285 40.68 491.181 40.68C492.237 40.68 493.133 40.472 493.869 40.056C494.605 39.608 494.973 38.984 494.973 38.184C494.973 37.608 494.797 37.128 494.445 36.744C494.125 36.36 493.501 36.008 492.573 35.688C491.645 35.368 490.269 35.016 488.445 34.632C486.717 34.248 485.245 33.736 484.029 33.096C482.813 32.456 481.901 31.656 481.293 30.696C480.685 29.704 480.381 28.52 480.381 27.144C480.381 25.896 480.765 24.696 481.533 23.544C482.333 22.392 483.501 21.448 485.037 20.712C486.573 19.944 488.493 19.56 490.797 19.56C492.557 19.56 494.093 19.784 495.405 20.232C496.749 20.648 497.869 21.192 498.765 21.864C499.661 22.504 500.333 23.176 500.781 23.88C501.261 24.552 501.517 25.144 501.549 25.656C501.581 25.976 501.485 26.248 501.261 26.472C501.037 26.696 500.781 26.808 500.493 26.808H496.221C496.061 26.808 495.917 26.792 495.789 26.76C495.661 26.696 495.549 26.616 495.453 26.52C495.069 26.264 494.669 25.976 494.253 25.656C493.869 25.304 493.405 25 492.861 24.744C492.317 24.488 491.613 24.36 490.749 24.36C489.693 24.36 488.877 24.6 488.301 25.08C487.757 25.528 487.485 26.104 487.485 26.808C487.485 27.256 487.629 27.672 487.917 28.056C488.205 28.44 488.797 28.792 489.693 29.112C490.589 29.432 491.949 29.768 493.773 30.12C495.949 30.504 497.677 31.08 498.957 31.848C500.237 32.616 501.149 33.512 501.693 34.536C502.269 35.528 502.557 36.6 502.557 37.752C502.557 39.256 502.109 40.6 501.213 41.784C500.317 42.936 499.005 43.848 497.277 44.52C495.581 45.16 493.485 45.48 490.989 45.48ZM10.368 102.48C8.672 102.48 7.152 102.16 5.808 101.52C4.464 100.848 3.392 99.952 2.592 98.832C1.792 97.712 1.392 96.464 1.392 95.088C1.392 92.816 2.304 91.024 4.128 89.712C5.984 88.4 8.416 87.504 11.424 87.024L17.712 86.112V85.248C17.712 84 17.424 83.04 16.848 82.368C16.272 81.696 15.264 81.36 13.824 81.36C12.768 81.36 11.92 81.568 11.28 81.984C10.64 82.4 10.144 82.944 9.792 83.616C9.536 84.032 9.168 84.24 8.688 84.24H4.128C3.776 84.24 3.504 84.144 3.312 83.952C3.12 83.728 3.04 83.472 3.072 83.184C3.072 82.64 3.28 82 3.696 81.264C4.112 80.528 4.752 79.808 5.616 79.104C6.48 78.368 7.584 77.76 8.928 77.28C10.272 76.8 11.92 76.56 13.872 76.56C15.888 76.56 17.616 76.8 19.056 77.28C20.496 77.76 21.648 78.432 22.512 79.296C23.376 80.16 24.016 81.168 24.432 82.32C24.848 83.44 25.056 84.656 25.056 85.968V100.8C25.056 101.152 24.944 101.44 24.72 101.664C24.496 101.888 24.208 102 23.856 102H19.152C18.832 102 18.56 101.888 18.336 101.664C18.112 101.44 18 101.152 18 100.8V99.024C17.584 99.632 17.024 100.208 16.32 100.752C15.616 101.264 14.768 101.68 13.776 102C12.816 102.32 11.68 102.48 10.368 102.48ZM12.288 97.488C13.344 97.488 14.288 97.264 15.12 96.816C15.952 96.368 16.608 95.68 17.088 94.752C17.568 93.824 17.808 92.656 17.808 91.248V90.432L13.344 91.152C11.616 91.44 10.352 91.872 9.552 92.448C8.752 93.024 8.352 93.728 8.352 94.56C8.352 95.168 8.528 95.696 8.88 96.144C9.264 96.592 9.76 96.928 10.368 97.152C10.976 97.376 11.616 97.488 12.288 97.488ZM32.0198 102C31.6998 102 31.4278 101.888 31.2038 101.664C30.9798 101.44 30.8678 101.152 30.8678 100.8V78.24C30.8678 77.888 30.9798 77.6 31.2038 77.376C31.4278 77.152 31.6998 77.04 32.0198 77.04H36.7238C37.0758 77.04 37.3638 77.152 37.5878 77.376C37.8118 77.6 37.9238 77.888 37.9238 78.24V80.112C38.7558 79.088 39.8278 78.24 41.1398 77.568C42.4518 76.896 44.0518 76.56 45.9398 76.56C47.8278 76.56 49.4758 76.992 50.8838 77.856C52.3238 78.688 53.4438 79.92 54.2438 81.552C55.0758 83.152 55.4918 85.104 55.4918 87.408V100.8C55.4918 101.152 55.3638 101.44 55.1078 101.664C54.8838 101.888 54.6118 102 54.2917 102H49.2038C48.8518 102 48.5638 101.888 48.3398 101.664C48.1158 101.44 48.0038 101.152 48.0038 100.8V87.696C48.0038 86 47.5878 84.688 46.7558 83.76C45.9558 82.8 44.7718 82.32 43.2038 82.32C41.6998 82.32 40.4998 82.8 39.6038 83.76C38.7078 84.688 38.2598 86 38.2598 87.696V100.8C38.2598 101.152 38.1478 101.44 37.9238 101.664C37.6998 101.888 37.4278 102 37.1078 102H32.0198ZM70.5068 102.48C68.9068 102.48 67.4828 102.224 66.2348 101.712C64.9868 101.168 63.9308 100.4 63.0668 99.408C62.2028 98.384 61.5468 97.184 61.0988 95.808C60.6508 94.4 60.3788 92.848 60.2828 91.152C60.2508 90.544 60.2348 90 60.2348 89.52C60.2348 89.008 60.2508 88.464 60.2828 87.888C60.3468 86.224 60.6028 84.704 61.0508 83.328C61.5308 81.952 62.1868 80.768 63.0188 79.776C63.8828 78.752 64.9388 77.968 66.1868 77.424C67.4668 76.848 68.9068 76.56 70.5068 76.56C72.1708 76.56 73.5948 76.848 74.7788 77.424C75.9628 77.968 76.9388 78.688 77.7068 79.584V69.12C77.7068 68.768 77.8188 68.48 78.0428 68.256C78.2668 68.032 78.5548 67.92 78.9068 67.92H83.8508C84.1708 67.92 84.4428 68.032 84.6667 68.256C84.8908 68.48 85.0028 68.768 85.0028 69.12V100.8C85.0028 101.152 84.8908 101.44 84.6667 101.664C84.4428 101.888 84.1708 102 83.8508 102H79.2428C78.9228 102 78.6508 101.888 78.4268 101.664C78.2028 101.44 78.0908 101.152 78.0908 100.8V99.168C77.2908 100.128 76.2828 100.928 75.0668 101.568C73.8508 102.176 72.3308 102.48 70.5068 102.48ZM72.7148 96.72C73.8988 96.72 74.8428 96.448 75.5468 95.904C76.2828 95.36 76.8108 94.672 77.1308 93.84C77.4828 93.008 77.6748 92.112 77.7068 91.152C77.7708 90.544 77.8028 89.936 77.8028 89.328C77.8028 88.72 77.7708 88.128 77.7068 87.552C77.6748 86.656 77.4828 85.824 77.1308 85.056C76.7788 84.256 76.2348 83.6 75.4988 83.088C74.7948 82.576 73.8668 82.32 72.7148 82.32C71.4988 82.32 70.5388 82.592 69.8348 83.136C69.1308 83.648 68.6188 84.336 68.2988 85.2C68.0108 86.064 67.8348 87.008 67.7708 88.032C67.6748 89.024 67.6748 90.016 67.7708 91.008C67.8348 92.032 68.0108 92.976 68.2988 93.84C68.6188 94.704 69.1308 95.408 69.8348 95.952C70.5388 96.464 71.4988 96.72 72.7148 96.72ZM103.424 102C103.072 102 102.784 101.888 102.56 101.664C102.336 101.44 102.224 101.152 102.224 100.8V69.6C102.224 69.248 102.336 68.96 102.56 68.736C102.784 68.512 103.072 68.4 103.424 68.4H115.472C118.672 68.4 121.344 68.912 123.488 69.936C125.632 70.928 127.264 72.4 128.384 74.352C129.536 76.272 130.144 78.656 130.208 81.504C130.24 82.912 130.256 84.144 130.256 85.2C130.256 86.256 130.24 87.472 130.208 88.848C130.112 91.824 129.52 94.288 128.432 96.24C127.344 98.192 125.744 99.648 123.632 100.608C121.52 101.536 118.88 102 115.712 102H103.424ZM109.856 95.808H115.472C117.072 95.808 118.384 95.568 119.408 95.088C120.432 94.608 121.184 93.856 121.664 92.832C122.176 91.776 122.448 90.416 122.48 88.752C122.512 87.824 122.528 86.992 122.528 86.256C122.56 85.52 122.56 84.784 122.528 84.048C122.528 83.312 122.512 82.496 122.48 81.6C122.416 79.2 121.792 77.44 120.608 76.32C119.456 75.168 117.664 74.592 115.232 74.592H109.856V95.808ZM136.879 102C136.559 102 136.287 101.888 136.063 101.664C135.839 101.44 135.727 101.152 135.727 100.8V78.24C135.727 77.888 135.839 77.6 136.063 77.376C136.287 77.152 136.559 77.04 136.879 77.04H141.679C142.031 77.04 142.319 77.152 142.543 77.376C142.767 77.6 142.879 77.888 142.879 78.24V100.8C142.879 101.152 142.767 101.44 142.543 101.664C142.319 101.888 142.031 102 141.679 102H136.879ZM136.735 73.2C136.415 73.2 136.143 73.088 135.919 72.864C135.695 72.64 135.583 72.352 135.583 72V68.16C135.583 67.808 135.695 67.52 135.919 67.296C136.143 67.04 136.415 66.912 136.735 66.912H141.775C142.127 66.912 142.415 67.04 142.639 67.296C142.895 67.52 143.023 67.808 143.023 68.16V72C143.023 72.352 142.895 72.64 142.639 72.864C142.415 73.088 142.127 73.2 141.775 73.2H136.735ZM160.611 112.56C158.243 112.56 156.275 112.24 154.707 111.6C153.139 110.992 151.891 110.24 150.963 109.344C150.067 108.48 149.427 107.616 149.043 106.752C148.659 105.888 148.451 105.216 148.419 104.736C148.387 104.384 148.499 104.096 148.755 103.872C149.011 103.648 149.299 103.536 149.619 103.536H154.755C155.043 103.536 155.283 103.6 155.475 103.728C155.699 103.888 155.875 104.144 156.003 104.496C156.163 104.88 156.387 105.28 156.675 105.696C156.963 106.144 157.395 106.512 157.971 106.8C158.579 107.088 159.379 107.232 160.371 107.232C161.491 107.232 162.419 107.072 163.155 106.752C163.891 106.432 164.435 105.888 164.787 105.12C165.171 104.352 165.363 103.312 165.363 102V98.784C164.595 99.616 163.619 100.304 162.435 100.848C161.283 101.392 159.859 101.664 158.163 101.664C156.499 101.664 155.027 101.408 153.747 100.896C152.499 100.352 151.459 99.6 150.627 98.64C149.795 97.648 149.155 96.464 148.707 95.088C148.259 93.712 148.003 92.16 147.939 90.432C147.907 89.568 147.907 88.72 147.939 87.888C148.003 86.224 148.259 84.704 148.707 83.328C149.155 81.952 149.795 80.768 150.627 79.776C151.459 78.752 152.499 77.968 153.747 77.424C155.027 76.848 156.499 76.56 158.163 76.56C159.923 76.56 161.427 76.896 162.675 77.568C163.923 78.24 164.947 79.072 165.747 80.064V78.24C165.747 77.92 165.859 77.648 166.083 77.424C166.307 77.168 166.579 77.04 166.899 77.04H171.603C171.923 77.04 172.195 77.168 172.419 77.424C172.675 77.648 172.803 77.92 172.803 78.24L172.851 101.328C172.851 103.728 172.387 105.76 171.459 107.424C170.531 109.088 169.155 110.352 167.331 111.216C165.539 112.112 163.299 112.56 160.611 112.56ZM160.371 96.048C161.523 96.048 162.451 95.792 163.155 95.28C163.891 94.736 164.435 94.064 164.787 93.264C165.139 92.432 165.331 91.568 165.363 90.672C165.395 90.32 165.411 89.824 165.411 89.184C165.411 88.512 165.395 88 165.363 87.648C165.331 86.752 165.139 85.904 164.787 85.104C164.435 84.272 163.891 83.6 163.155 83.088C162.451 82.576 161.523 82.32 160.371 82.32C159.155 82.32 158.195 82.592 157.491 83.136C156.787 83.648 156.275 84.336 155.955 85.2C155.635 86.064 155.443 87.008 155.379 88.032C155.347 88.8 155.347 89.552 155.379 90.288C155.443 91.344 155.635 92.304 155.955 93.168C156.275 94.032 156.787 94.736 157.491 95.28C158.195 95.792 159.155 96.048 160.371 96.048ZM180.051 102C179.731 102 179.459 101.888 179.235 101.664C179.011 101.44 178.899 101.152 178.899 100.8V78.24C178.899 77.888 179.011 77.6 179.235 77.376C179.459 77.152 179.731 77.04 180.051 77.04H184.851C185.203 77.04 185.491 77.152 185.715 77.376C185.939 77.6 186.051 77.888 186.051 78.24V100.8C186.051 101.152 185.939 101.44 185.715 101.664C185.491 101.888 185.203 102 184.851 102H180.051ZM179.907 73.2C179.587 73.2 179.315 73.088 179.091 72.864C178.867 72.64 178.755 72.352 178.755 72V68.16C178.755 67.808 178.867 67.52 179.091 67.296C179.315 67.04 179.587 66.912 179.907 66.912H184.947C185.299 66.912 185.587 67.04 185.811 67.296C186.067 67.52 186.195 67.808 186.195 68.16V72C186.195 72.352 186.067 72.64 185.811 72.864C185.587 73.088 185.299 73.2 184.947 73.2H179.907ZM204.071 102C202.087 102 200.391 101.68 198.983 101.04C197.575 100.368 196.503 99.344 195.767 97.968C195.063 96.592 194.711 94.864 194.711 92.784V82.704H190.967C190.615 82.704 190.327 82.592 190.103 82.368C189.879 82.144 189.767 81.856 189.767 81.504V78.24C189.767 77.888 189.879 77.6 190.103 77.376C190.327 77.152 190.615 77.04 190.967 77.04H194.711V69.12C194.711 68.768 194.823 68.48 195.047 68.256C195.303 68.032 195.591 67.92 195.911 67.92H200.615C200.967 67.92 201.255 68.032 201.479 68.256C201.703 68.48 201.815 68.768 201.815 69.12V77.04H207.815C208.135 77.04 208.407 77.152 208.631 77.376C208.855 77.6 208.967 77.888 208.967 78.24V81.504C208.967 81.856 208.855 82.144 208.631 82.368C208.407 82.592 208.135 82.704 207.815 82.704H201.815V92.208C201.815 93.424 202.023 94.384 202.439 95.088C202.887 95.76 203.655 96.096 204.743 96.096H208.247C208.567 96.096 208.839 96.208 209.063 96.432C209.287 96.656 209.399 96.928 209.399 97.248V100.8C209.399 101.152 209.287 101.44 209.063 101.664C208.839 101.888 208.567 102 208.247 102H204.071ZM220.931 102.48C219.235 102.48 217.715 102.16 216.371 101.52C215.027 100.848 213.955 99.952 213.155 98.832C212.355 97.712 211.955 96.464 211.955 95.088C211.955 92.816 212.867 91.024 214.691 89.712C216.547 88.4 218.979 87.504 221.987 87.024L228.275 86.112V85.248C228.275 84 227.987 83.04 227.411 82.368C226.835 81.696 225.827 81.36 224.387 81.36C223.331 81.36 222.483 81.568 221.843 81.984C221.203 82.4 220.707 82.944 220.355 83.616C220.099 84.032 219.731 84.24 219.251 84.24H214.691C214.339 84.24 214.067 84.144 213.875 83.952C213.683 83.728 213.603 83.472 213.635 83.184C213.635 82.64 213.843 82 214.259 81.264C214.675 80.528 215.315 79.808 216.179 79.104C217.043 78.368 218.147 77.76 219.491 77.28C220.835 76.8 222.483 76.56 224.435 76.56C226.451 76.56 228.179 76.8 229.619 77.28C231.059 77.76 232.211 78.432 233.075 79.296C233.939 80.16 234.579 81.168 234.995 82.32C235.411 83.44 235.619 84.656 235.619 85.968V100.8C235.619 101.152 235.507 101.44 235.283 101.664C235.059 101.888 234.771 102 234.419 102H229.715C229.395 102 229.123 101.888 228.899 101.664C228.675 101.44 228.563 101.152 228.563 100.8V99.024C228.147 99.632 227.587 100.208 226.883 100.752C226.179 101.264 225.331 101.68 224.339 102C223.378 102.32 222.243 102.48 220.931 102.48ZM222.851 97.488C223.907 97.488 224.851 97.264 225.683 96.816C226.515 96.368 227.171 95.68 227.651 94.752C228.131 93.824 228.371 92.656 228.371 91.248V90.432L223.907 91.152C222.179 91.44 220.915 91.872 220.115 92.448C219.315 93.024 218.915 93.728 218.915 94.56C218.915 95.168 219.091 95.696 219.443 96.144C219.827 96.592 220.323 96.928 220.931 97.152C221.539 97.376 222.179 97.488 222.851 97.488ZM242.63 102C242.278 102 241.99 101.888 241.766 101.664C241.542 101.44 241.43 101.152 241.43 100.8V69.12C241.43 68.768 241.542 68.48 241.766 68.256C241.99 68.032 242.278 67.92 242.63 67.92H247.43C247.75 67.92 248.022 68.032 248.246 68.256C248.47 68.48 248.582 68.768 248.582 69.12V100.8C248.582 101.152 248.47 101.44 248.246 101.664C248.022 101.888 247.75 102 247.43 102H242.63ZM272.587 102.48C270.891 102.48 269.371 102.16 268.027 101.52C266.683 100.848 265.611 99.952 264.811 98.832C264.011 97.712 263.611 96.464 263.611 95.088C263.611 92.816 264.523 91.024 266.347 89.712C268.203 88.4 270.635 87.504 273.643 87.024L279.931 86.112V85.248C279.931 84 279.643 83.04 279.067 82.368C278.491 81.696 277.483 81.36 276.043 81.36C274.987 81.36 274.139 81.568 273.499 81.984C272.859 82.4 272.363 82.944 272.011 83.616C271.755 84.032 271.387 84.24 270.907 84.24H266.347C265.995 84.24 265.723 84.144 265.531 83.952C265.339 83.728 265.259 83.472 265.291 83.184C265.291 82.64 265.499 82 265.915 81.264C266.331 80.528 266.971 79.808 267.835 79.104C268.699 78.368 269.803 77.76 271.147 77.28C272.491 76.8 274.139 76.56 276.091 76.56C278.107 76.56 279.835 76.8 281.275 77.28C282.715 77.76 283.867 78.432 284.731 79.296C285.595 80.16 286.235 81.168 286.651 82.32C287.067 83.44 287.275 84.656 287.275 85.968V100.8C287.275 101.152 287.163 101.44 286.939 101.664C286.715 101.888 286.427 102 286.075 102H281.371C281.051 102 280.779 101.888 280.555 101.664C280.331 101.44 280.219 101.152 280.219 100.8V99.024C279.803 99.632 279.243 100.208 278.539 100.752C277.835 101.264 276.987 101.68 275.995 102C275.035 102.32 273.899 102.48 272.587 102.48ZM274.507 97.488C275.563 97.488 276.507 97.264 277.339 96.816C278.171 96.368 278.827 95.68 279.307 94.752C279.787 93.824 280.027 92.656 280.027 91.248V90.432L275.563 91.152C273.835 91.44 272.571 91.872 271.771 92.448C270.971 93.024 270.571 93.728 270.571 94.56C270.571 95.168 270.747 95.696 271.099 96.144C271.483 96.592 271.979 96.928 272.587 97.152C273.195 97.376 273.835 97.488 274.507 97.488ZM294.239 102C293.919 102 293.647 101.888 293.423 101.664C293.199 101.44 293.087 101.152 293.087 100.8V78.24C293.087 77.92 293.199 77.648 293.423 77.424C293.647 77.168 293.919 77.04 294.239 77.04H298.943C299.263 77.04 299.535 77.168 299.759 77.424C300.015 77.648 300.143 77.92 300.143 78.24V80.16C300.943 79.168 301.919 78.4 303.071 77.856C304.255 77.312 305.615 77.04 307.151 77.04H309.215C309.535 77.04 309.807 77.152 310.031 77.376C310.255 77.6 310.367 77.888 310.367 78.24V82.368C310.367 82.72 310.255 83.008 310.031 83.232C309.807 83.456 309.535 83.568 309.215 83.568H304.991C303.583 83.568 302.479 83.968 301.679 84.768C300.879 85.536 300.479 86.64 300.479 88.08V100.8C300.479 101.152 300.367 101.44 300.143 101.664C299.919 101.888 299.631 102 299.279 102H294.239ZM325.946 102C323.962 102 322.266 101.68 320.858 101.04C319.45 100.368 318.378 99.344 317.642 97.968C316.938 96.592 316.586 94.864 316.586 92.784V82.704H312.842C312.49 82.704 312.202 82.592 311.978 82.368C311.754 82.144 311.642 81.856 311.642 81.504V78.24C311.642 77.888 311.754 77.6 311.978 77.376C312.202 77.152 312.49 77.04 312.842 77.04H316.586V69.12C316.586 68.768 316.698 68.48 316.922 68.256C317.178 68.032 317.466 67.92 317.786 67.92H322.49C322.842 67.92 323.13 68.032 323.354 68.256C323.578 68.48 323.69 68.768 323.69 69.12V77.04H329.69C330.01 77.04 330.282 77.152 330.506 77.376C330.73 77.6 330.842 77.888 330.842 78.24V81.504C330.842 81.856 330.73 82.144 330.506 82.368C330.282 82.592 330.01 82.704 329.69 82.704H323.69V92.208C323.69 93.424 323.898 94.384 324.314 95.088C324.762 95.76 325.53 96.096 326.618 96.096H330.122C330.442 96.096 330.714 96.208 330.938 96.432C331.162 96.656 331.274 96.928 331.274 97.248V100.8C331.274 101.152 331.162 101.44 330.938 101.664C330.714 101.888 330.442 102 330.122 102H325.946ZM345.302 102.48C343.318 102.48 341.606 102.256 340.166 101.808C338.758 101.328 337.606 100.752 336.71 100.08C335.846 99.408 335.19 98.736 334.742 98.064C334.326 97.36 334.102 96.768 334.07 96.288C334.038 95.936 334.15 95.648 334.406 95.424C334.662 95.2 334.918 95.088 335.174 95.088H339.83C339.926 95.088 340.022 95.104 340.118 95.136C340.214 95.168 340.31 95.248 340.406 95.376C340.822 95.664 341.254 96 341.702 96.384C342.15 96.736 342.662 97.04 343.238 97.296C343.846 97.552 344.598 97.68 345.494 97.68C346.55 97.68 347.446 97.472 348.182 97.056C348.918 96.608 349.286 95.984 349.286 95.184C349.286 94.608 349.11 94.128 348.758 93.744C348.438 93.36 347.814 93.008 346.886 92.688C345.958 92.368 344.582 92.016 342.758 91.632C341.03 91.248 339.558 90.736 338.342 90.096C337.126 89.456 336.214 88.656 335.605 87.696C334.998 86.704 334.694 85.52 334.694 84.144C334.694 82.896 335.078 81.696 335.846 80.544C336.646 79.392 337.814 78.448 339.35 77.712C340.886 76.944 342.806 76.56 345.109 76.56C346.87 76.56 348.406 76.784 349.718 77.232C351.062 77.648 352.182 78.192 353.078 78.864C353.974 79.504 354.646 80.176 355.094 80.88C355.574 81.552 355.83 82.144 355.862 82.656C355.894 82.976 355.798 83.248 355.574 83.472C355.35 83.696 355.094 83.808 354.806 83.808H350.534C350.374 83.808 350.23 83.792 350.102 83.76C349.974 83.696 349.862 83.616 349.766 83.52C349.382 83.264 348.982 82.976 348.566 82.656C348.182 82.304 347.718 82 347.174 81.744C346.63 81.488 345.926 81.36 345.062 81.36C344.006 81.36 343.19 81.6 342.614 82.08C342.07 82.528 341.798 83.104 341.798 83.808C341.798 84.256 341.942 84.672 342.23 85.056C342.518 85.44 343.11 85.792 344.006 86.112C344.902 86.432 346.262 86.768 348.086 87.12C350.262 87.504 351.99 88.08 353.27 88.848C354.55 89.616 355.462 90.512 356.006 91.536C356.582 92.528 356.87 93.6 356.87 94.752C356.87 96.256 356.422 97.6 355.526 98.784C354.63 99.936 353.318 100.848 351.59 101.52C349.894 102.16 347.798 102.48 345.302 102.48ZM383.495 102.48C380.839 102.48 378.615 102.048 376.823 101.184C375.031 100.288 373.655 99.024 372.695 97.392C371.767 95.76 371.255 93.856 371.159 91.68C371.127 91.04 371.111 90.32 371.111 89.52C371.111 88.688 371.127 87.968 371.159 87.36C371.255 85.152 371.799 83.248 372.791 81.648C373.783 80.016 375.175 78.768 376.967 77.904C378.759 77.008 380.935 76.56 383.495 76.56C386.023 76.56 388.183 77.008 389.975 77.904C391.767 78.768 393.159 80.016 394.151 81.648C395.143 83.248 395.687 85.152 395.783 87.36C395.847 87.968 395.879 88.688 395.879 89.52C395.879 90.32 395.847 91.04 395.783 91.68C395.687 93.856 395.159 95.76 394.199 97.392C393.271 99.024 391.911 100.288 390.119 101.184C388.327 102.048 386.119 102.48 383.495 102.48ZM383.495 97.2C385.063 97.2 386.247 96.72 387.047 95.76C387.847 94.768 388.279 93.328 388.343 91.44C388.375 90.96 388.391 90.32 388.391 89.52C388.391 88.72 388.375 88.08 388.343 87.6C388.279 85.744 387.847 84.32 387.047 83.328C386.247 82.336 385.063 81.84 383.495 81.84C381.927 81.84 380.727 82.336 379.895 83.328C379.095 84.32 378.663 85.744 378.599 87.6C378.567 88.08 378.551 88.72 378.551 89.52C378.551 90.32 378.567 90.96 378.599 91.44C378.663 93.328 379.095 94.768 379.895 95.76C380.727 96.72 381.927 97.2 383.495 97.2ZM402.051 102C401.731 102 401.459 101.888 401.235 101.664C401.011 101.44 400.899 101.152 400.899 100.8V78.24C400.899 77.888 401.011 77.6 401.235 77.376C401.459 77.152 401.731 77.04 402.051 77.04H406.755C407.107 77.04 407.395 77.152 407.619 77.376C407.843 77.6 407.955 77.888 407.955 78.24V80.112C408.787 79.088 409.859 78.24 411.171 77.568C412.483 76.896 414.083 76.56 415.971 76.56C417.859 76.56 419.507 76.992 420.915 77.856C422.355 78.688 423.475 79.92 424.275 81.552C425.107 83.152 425.523 85.104 425.523 87.408V100.8C425.523 101.152 425.395 101.44 425.139 101.664C424.915 101.888 424.643 102 424.323 102H419.235C418.883 102 418.595 101.888 418.371 101.664C418.147 101.44 418.035 101.152 418.035 100.8V87.696C418.035 86 417.619 84.688 416.787 83.76C415.987 82.8 414.803 82.32 413.235 82.32C411.731 82.32 410.531 82.8 409.635 83.76C408.739 84.688 408.291 86 408.291 87.696V100.8C408.291 101.152 408.179 101.44 407.955 101.664C407.731 101.888 407.459 102 407.139 102H402.051ZM453.292 102.48C450.636 102.48 448.412 102.048 446.62 101.184C444.828 100.288 443.452 99.024 442.492 97.392C441.564 95.76 441.052 93.856 440.956 91.68C440.924 91.04 440.908 90.32 440.908 89.52C440.908 88.688 440.924 87.968 440.956 87.36C441.052 85.152 441.596 83.248 442.588 81.648C443.58 80.016 444.972 78.768 446.764 77.904C448.556 77.008 450.732 76.56 453.292 76.56C455.82 76.56 457.98 77.008 459.772 77.904C461.564 78.768 462.956 80.016 463.948 81.648C464.94 83.248 465.484 85.152 465.58 87.36C465.644 87.968 465.676 88.688 465.676 89.52C465.676 90.32 465.644 91.04 465.58 91.68C465.484 93.856 464.956 95.76 463.996 97.392C463.068 99.024 461.708 100.288 459.916 101.184C458.124 102.048 455.916 102.48 453.292 102.48ZM453.292 97.2C454.86 97.2 456.044 96.72 456.844 95.76C457.644 94.768 458.076 93.328 458.14 91.44C458.172 90.96 458.188 90.32 458.188 89.52C458.188 88.72 458.172 88.08 458.14 87.6C458.076 85.744 457.644 84.32 456.844 83.328C456.044 82.336 454.86 81.84 453.292 81.84C451.724 81.84 450.524 82.336 449.692 83.328C448.892 84.32 448.46 85.744 448.396 87.6C448.364 88.08 448.348 88.72 448.348 89.52C448.348 90.32 448.364 90.96 448.396 91.44C448.46 93.328 448.892 94.768 449.692 95.76C450.524 96.72 451.724 97.2 453.292 97.2ZM479.864 102.48C478.008 102.48 476.36 102.064 474.92 101.232C473.512 100.368 472.408 99.136 471.608 97.536C470.84 95.904 470.456 93.936 470.456 91.632V78.24C470.456 77.888 470.568 77.6 470.792 77.376C471.016 77.152 471.288 77.04 471.608 77.04H476.696C477.048 77.04 477.336 77.152 477.56 77.376C477.784 77.6 477.896 77.888 477.896 78.24V91.344C477.896 94.928 479.464 96.72 482.6 96.72C484.104 96.72 485.288 96.256 486.152 95.328C487.048 94.368 487.496 93.04 487.496 91.344V78.24C487.496 77.888 487.608 77.6 487.832 77.376C488.056 77.152 488.344 77.04 488.696 77.04H493.784C494.104 77.04 494.376 77.152 494.6 77.376C494.824 77.6 494.936 77.888 494.936 78.24V100.8C494.936 101.152 494.824 101.44 494.6 101.664C494.376 101.888 494.104 102 493.784 102H489.08C488.728 102 488.44 101.888 488.216 101.664C487.992 101.44 487.88 101.152 487.88 100.8V98.928C487.048 100.08 485.976 100.96 484.664 101.568C483.352 102.176 481.752 102.48 479.864 102.48ZM502.129 102C501.809 102 501.537 101.888 501.313 101.664C501.089 101.44 500.977 101.152 500.977 100.8V78.24C500.977 77.92 501.089 77.648 501.313 77.424C501.537 77.168 501.809 77.04 502.129 77.04H506.833C507.153 77.04 507.425 77.168 507.649 77.424C507.905 77.648 508.033 77.92 508.033 78.24V80.16C508.833 79.168 509.809 78.4 510.961 77.856C512.145 77.312 513.505 77.04 515.041 77.04H517.105C517.425 77.04 517.697 77.152 517.921 77.376C518.145 77.6 518.257 77.888 518.257 78.24V82.368C518.257 82.72 518.145 83.008 517.921 83.232C517.697 83.456 517.425 83.568 517.105 83.568H512.881C511.473 83.568 510.369 83.968 509.569 84.768C508.769 85.536 508.369 86.64 508.369 88.08V100.8C508.369 101.152 508.257 101.44 508.033 101.664C507.809 101.888 507.521 102 507.169 102H502.129ZM4.224 168.12C3.872 168.12 3.584 168.008 3.36 167.784C3.136 167.56 3.024 167.272 3.024 166.92V135.24C3.024 134.888 3.136 134.6 3.36 134.376C3.584 134.152 3.872 134.04 4.224 134.04H8.784C9.136 134.04 9.424 134.152 9.648 134.376C9.872 134.6 9.984 134.888 9.984 135.24V137.064C10.752 136.04 11.744 135.208 12.96 134.568C14.176 133.896 15.696 133.56 17.52 133.56C19.184 133.56 20.624 133.832 21.84 134.376C23.088 134.888 24.128 135.64 24.96 136.632C25.824 137.592 26.48 138.76 26.928 140.136C27.408 141.512 27.68 143.064 27.744 144.792C27.776 145.4 27.792 145.976 27.792 146.52C27.792 147.064 27.776 147.656 27.744 148.296C27.712 149.928 27.456 151.432 26.976 152.808C26.528 154.184 25.872 155.368 25.008 156.36C24.144 157.352 23.088 158.12 21.84 158.664C20.624 159.208 19.184 159.48 17.52 159.48C15.888 159.48 14.464 159.192 13.248 158.616C12.064 158.008 11.088 157.192 10.32 156.168V166.92C10.32 167.272 10.208 167.56 9.984 167.784C9.76 168.008 9.488 168.12 9.168 168.12H4.224ZM15.36 153.72C16.576 153.72 17.536 153.464 18.24 152.952C18.944 152.408 19.44 151.704 19.728 150.84C20.048 149.976 20.24 149.032 20.304 148.008C20.368 147.016 20.368 146.024 20.304 145.032C20.24 144.008 20.048 143.064 19.728 142.2C19.44 141.336 18.944 140.648 18.24 140.136C17.536 139.592 16.576 139.32 15.36 139.32C14.176 139.32 13.216 139.592 12.48 140.136C11.744 140.68 11.216 141.368 10.896 142.2C10.576 143.032 10.384 143.928 10.32 144.888C10.288 145.464 10.272 146.056 10.272 146.664C10.272 147.272 10.288 147.88 10.32 148.488C10.352 149.384 10.544 150.232 10.896 151.032C11.28 151.8 11.824 152.44 12.528 152.952C13.264 153.464 14.208 153.72 15.36 153.72ZM34.0834 159C33.7314 159 33.4434 158.888 33.2194 158.664C32.9954 158.44 32.8834 158.152 32.8834 157.8V126.12C32.8834 125.768 32.9954 125.48 33.2194 125.256C33.4434 125.032 33.7314 124.92 34.0834 124.92H38.8834C39.2034 124.92 39.4754 125.032 39.6994 125.256C39.9234 125.48 40.0354 125.768 40.0354 126.12V157.8C40.0354 158.152 39.9234 158.44 39.6994 158.664C39.4754 158.888 39.2034 159 38.8834 159H34.0834ZM53.4461 159.48C51.7501 159.48 50.2301 159.16 48.8861 158.52C47.5421 157.848 46.4701 156.952 45.6701 155.832C44.8701 154.712 44.4701 153.464 44.4701 152.088C44.4701 149.816 45.3821 148.024 47.2061 146.712C49.0621 145.4 51.4941 144.504 54.5021 144.024L60.7901 143.112V142.248C60.7901 141 60.5021 140.04 59.9261 139.368C59.3501 138.696 58.3421 138.36 56.9021 138.36C55.8461 138.36 54.9981 138.568 54.3581 138.984C53.7181 139.4 53.2221 139.944 52.8701 140.616C52.6141 141.032 52.2461 141.24 51.7661 141.24H47.2061C46.8541 141.24 46.5821 141.144 46.3901 140.952C46.1981 140.728 46.1181 140.472 46.1501 140.184C46.1501 139.64 46.3581 139 46.7741 138.264C47.1901 137.528 47.8301 136.808 48.6941 136.104C49.5581 135.368 50.6621 134.76 52.0061 134.28C53.3501 133.8 54.9981 133.56 56.9501 133.56C58.9661 133.56 60.6941 133.8 62.1341 134.28C63.5741 134.76 64.7261 135.432 65.5901 136.296C66.4541 137.16 67.0941 138.168 67.5101 139.32C67.9261 140.44 68.1341 141.656 68.1341 142.968V157.8C68.1341 158.152 68.0221 158.44 67.7981 158.664C67.5741 158.888 67.2861 159 66.9341 159H62.2301C61.9101 159 61.6381 158.888 61.4141 158.664C61.1901 158.44 61.0781 158.152 61.0781 157.8V156.024C60.6621 156.632 60.1021 157.208 59.3981 157.752C58.6941 158.264 57.8461 158.68 56.8541 159C55.8941 159.32 54.7581 159.48 53.4461 159.48ZM55.3661 154.488C56.4221 154.488 57.3661 154.264 58.1981 153.816C59.0301 153.368 59.6861 152.68 60.1661 151.752C60.6461 150.824 60.8861 149.656 60.8861 148.248V147.432L56.4221 148.152C54.6941 148.44 53.4301 148.872 52.6301 149.448C51.8301 150.024 51.4301 150.728 51.4301 151.56C51.4301 152.168 51.6061 152.696 51.9581 153.144C52.3421 153.592 52.8381 153.928 53.4461 154.152C54.0541 154.376 54.6941 154.488 55.3661 154.488ZM85.7584 159C83.7744 159 82.0784 158.68 80.6704 158.04C79.2624 157.368 78.1904 156.344 77.4544 154.968C76.7504 153.592 76.3984 151.864 76.3984 149.784V139.704H72.6544C72.3024 139.704 72.0144 139.592 71.7904 139.368C71.5664 139.144 71.4544 138.856 71.4544 138.504V135.24C71.4544 134.888 71.5664 134.6 71.7904 134.376C72.0144 134.152 72.3024 134.04 72.6544 134.04H76.3984V126.12C76.3984 125.768 76.5104 125.48 76.7344 125.256C76.9904 125.032 77.2784 124.92 77.5984 124.92H82.3024C82.6544 124.92 82.9424 125.032 83.1664 125.256C83.3904 125.48 83.5024 125.768 83.5024 126.12V134.04H89.5024C89.8224 134.04 90.0944 134.152 90.3184 134.376C90.5424 134.6 90.6544 134.888 90.6544 135.24V138.504C90.6544 138.856 90.5424 139.144 90.3184 139.368C90.0944 139.592 89.8224 139.704 89.5024 139.704H83.5024V149.208C83.5024 150.424 83.7104 151.384 84.1264 152.088C84.5744 152.76 85.3424 153.096 86.4304 153.096H89.9344C90.2544 153.096 90.5264 153.208 90.7504 153.432C90.9744 153.656 91.0864 153.928 91.0864 154.248V157.8C91.0864 158.152 90.9744 158.44 90.7504 158.664C90.5264 158.888 90.2544 159 89.9344 159H85.7584ZM99.21 159C98.858 159 98.57 158.888 98.346 158.664C98.122 158.44 98.01 158.152 98.01 157.8V139.704H94.266C93.914 139.704 93.626 139.592 93.402 139.368C93.178 139.144 93.066 138.856 93.066 138.504V135.24C93.066 134.888 93.178 134.6 93.402 134.376C93.626 134.152 93.914 134.04 94.266 134.04H98.01V132.312C98.01 130.264 98.394 128.584 99.162 127.272C99.93 125.96 101.05 125 102.522 124.392C103.994 123.784 105.802 123.48 107.946 123.48H111.45C111.802 123.48 112.09 123.592 112.314 123.816C112.538 124.04 112.65 124.328 112.65 124.68V127.944C112.65 128.296 112.538 128.584 112.314 128.808C112.09 129.032 111.802 129.144 111.45 129.144H108.234C107.05 129.144 106.218 129.432 105.738 130.008C105.29 130.584 105.066 131.432 105.066 132.552V134.04H110.97C111.322 134.04 111.61 134.152 111.834 134.376C112.058 134.6 112.17 134.888 112.17 135.24V138.504C112.17 138.856 112.058 139.144 111.834 139.368C111.61 139.592 111.322 139.704 110.97 139.704H105.066V157.8C105.066 158.152 104.954 158.44 104.73 158.664C104.506 158.888 104.234 159 103.914 159H99.21ZM126.901 159.48C124.245 159.48 122.021 159.048 120.229 158.184C118.437 157.288 117.061 156.024 116.101 154.392C115.173 152.76 114.661 150.856 114.565 148.68C114.533 148.04 114.517 147.32 114.517 146.52C114.517 145.688 114.533 144.968 114.565 144.36C114.661 142.152 115.205 140.248 116.197 138.648C117.189 137.016 118.581 135.768 120.373 134.904C122.165 134.008 124.341 133.56 126.901 133.56C129.429 133.56 131.589 134.008 133.381 134.904C135.173 135.768 136.565 137.016 137.557 138.648C138.549 140.248 139.093 142.152 139.189 144.36C139.253 144.968 139.285 145.688 139.285 146.52C139.285 147.32 139.253 148.04 139.189 148.68C139.093 150.856 138.565 152.76 137.605 154.392C136.677 156.024 135.317 157.288 133.525 158.184C131.733 159.048 129.525 159.48 126.901 159.48ZM126.901 154.2C128.469 154.2 129.653 153.72 130.453 152.76C131.253 151.768 131.685 150.328 131.749 148.44C131.781 147.96 131.797 147.32 131.797 146.52C131.797 145.72 131.781 145.08 131.749 144.6C131.685 142.744 131.253 141.32 130.453 140.328C129.653 139.336 128.469 138.84 126.901 138.84C125.333 138.84 124.133 139.336 123.301 140.328C122.501 141.32 122.069 142.744 122.005 144.6C121.973 145.08 121.957 145.72 121.957 146.52C121.957 147.32 121.973 147.96 122.005 148.44C122.069 150.328 122.501 151.768 123.301 152.76C124.133 153.72 125.333 154.2 126.901 154.2ZM145.457 159C145.137 159 144.865 158.888 144.641 158.664C144.417 158.44 144.305 158.152 144.305 157.8V135.24C144.305 134.92 144.417 134.648 144.641 134.424C144.865 134.168 145.137 134.04 145.457 134.04H150.161C150.481 134.04 150.753 134.168 150.977 134.424C151.233 134.648 151.361 134.92 151.361 135.24V137.16C152.161 136.168 153.137 135.4 154.289 134.856C155.473 134.312 156.833 134.04 158.369 134.04H160.433C160.753 134.04 161.025 134.152 161.249 134.376C161.473 134.6 161.585 134.888 161.585 135.24V139.368C161.585 139.72 161.473 140.008 161.249 140.232C161.025 140.456 160.753 140.568 160.433 140.568H156.209C154.801 140.568 153.697 140.968 152.897 141.768C152.097 142.536 151.697 143.64 151.697 145.08V157.8C151.697 158.152 151.585 158.44 151.361 158.664C151.137 158.888 150.849 159 150.497 159H145.457ZM166.317 159C165.997 159 165.725 158.888 165.501 158.664C165.277 158.44 165.165 158.152 165.165 157.8V135.24C165.165 134.888 165.277 134.6 165.501 134.376C165.725 134.152 165.997 134.04 166.317 134.04H170.781C171.101 134.04 171.373 134.152 171.597 134.376C171.853 134.6 171.981 134.888 171.981 135.24V136.872C172.621 135.976 173.501 135.208 174.621 134.568C175.773 133.928 177.133 133.592 178.701 133.56C182.413 133.496 184.957 134.904 186.333 137.784C187.069 136.536 188.125 135.528 189.501 134.76C190.909 133.96 192.445 133.56 194.109 133.56C195.773 133.56 197.277 133.944 198.621 134.712C199.965 135.448 201.021 136.6 201.789 138.168C202.589 139.704 202.989 141.688 202.989 144.12V157.8C202.989 158.152 202.877 158.44 202.653 158.664C202.429 158.888 202.157 159 201.837 159H197.085C196.765 159 196.493 158.888 196.269 158.664C196.045 158.44 195.933 158.152 195.933 157.8V144.504C195.933 143.192 195.741 142.168 195.357 141.432C194.973 140.664 194.461 140.12 193.821 139.8C193.213 139.48 192.525 139.32 191.757 139.32C191.085 139.32 190.429 139.48 189.789 139.8C189.181 140.12 188.669 140.664 188.253 141.432C187.869 142.168 187.677 143.192 187.677 144.504V157.8C187.677 158.152 187.565 158.44 187.341 158.664C187.117 158.888 186.829 159 186.477 159H181.773C181.421 159 181.133 158.888 180.909 158.664C180.685 158.44 180.573 158.152 180.573 157.8V144.504C180.573 143.192 180.381 142.168 179.997 141.432C179.613 140.664 179.101 140.12 178.461 139.8C177.853 139.48 177.181 139.32 176.445 139.32C175.773 139.32 175.117 139.496 174.477 139.848C173.837 140.168 173.309 140.696 172.893 141.432C172.509 142.168 172.317 143.176 172.317 144.456V157.8C172.317 158.152 172.205 158.44 171.981 158.664C171.757 158.888 171.485 159 171.165 159H166.317ZM225.185 159C224.737 159 224.385 158.888 224.129 158.664C223.905 158.44 223.729 158.152 223.601 157.8L216.737 135.576C216.673 135.416 216.641 135.256 216.641 135.096C216.641 134.808 216.737 134.568 216.929 134.376C217.153 134.152 217.409 134.04 217.697 134.04H221.921C222.337 134.04 222.657 134.152 222.881 134.376C223.105 134.6 223.249 134.808 223.313 135L227.681 149.832L232.337 135.096C232.401 134.872 232.545 134.648 232.769 134.424C233.025 134.168 233.377 134.04 233.825 134.04H236.561C237.009 134.04 237.345 134.168 237.569 134.424C237.825 134.648 237.985 134.872 238.049 135.096L242.705 149.832L247.073 135C247.105 134.808 247.233 134.6 247.457 134.376C247.713 134.152 248.033 134.04 248.417 134.04H252.641C252.929 134.04 253.169 134.152 253.361 134.376C253.585 134.568 253.697 134.808 253.697 135.096C253.697 135.256 253.681 135.416 253.649 135.576L246.737 157.8C246.641 158.152 246.465 158.44 246.209 158.664C245.985 158.888 245.649 159 245.201 159H241.505C241.057 159 240.705 158.888 240.449 158.664C240.193 158.44 240.001 158.152 239.873 157.8L235.217 143.592L230.465 157.8C230.369 158.152 230.193 158.44 229.937 158.664C229.681 158.888 229.329 159 228.881 159H225.185ZM259.27 159C258.95 159 258.678 158.888 258.454 158.664C258.23 158.44 258.118 158.152 258.118 157.8V135.24C258.118 134.888 258.23 134.6 258.454 134.376C258.678 134.152 258.95 134.04 259.27 134.04H264.07C264.422 134.04 264.71 134.152 264.934 134.376C265.158 134.6 265.27 134.888 265.27 135.24V157.8C265.27 158.152 265.158 158.44 264.934 158.664C264.71 158.888 264.422 159 264.07 159H259.27ZM259.126 130.2C258.806 130.2 258.534 130.088 258.31 129.864C258.086 129.64 257.974 129.352 257.974 129V125.16C257.974 124.808 258.086 124.52 258.31 124.296C258.534 124.04 258.806 123.912 259.126 123.912H264.166C264.518 123.912 264.806 124.04 265.03 124.296C265.286 124.52 265.414 124.808 265.414 125.16V129C265.414 129.352 265.286 129.64 265.03 129.864C264.806 130.088 264.518 130.2 264.166 130.2H259.126ZM283.29 159C281.306 159 279.61 158.68 278.202 158.04C276.794 157.368 275.722 156.344 274.986 154.968C274.282 153.592 273.93 151.864 273.93 149.784V139.704H270.186C269.834 139.704 269.546 139.592 269.322 139.368C269.098 139.144 268.986 138.856 268.986 138.504V135.24C268.986 134.888 269.098 134.6 269.322 134.376C269.546 134.152 269.834 134.04 270.186 134.04H273.93V126.12C273.93 125.768 274.042 125.48 274.266 125.256C274.522 125.032 274.81 124.92 275.13 124.92H279.834C280.186 124.92 280.474 125.032 280.698 125.256C280.922 125.48 281.034 125.768 281.034 126.12V134.04H287.034C287.354 134.04 287.626 134.152 287.85 134.376C288.074 134.6 288.186 134.888 288.186 135.24V138.504C288.186 138.856 288.074 139.144 287.85 139.368C287.626 139.592 287.354 139.704 287.034 139.704H281.034V149.208C281.034 150.424 281.242 151.384 281.658 152.088C282.106 152.76 282.874 153.096 283.962 153.096H287.466C287.786 153.096 288.058 153.208 288.282 153.432C288.506 153.656 288.618 153.928 288.618 154.248V157.8C288.618 158.152 288.506 158.44 288.282 158.664C288.058 158.888 287.786 159 287.466 159H283.29ZM294.005 159C293.653 159 293.365 158.888 293.141 158.664C292.917 158.44 292.805 158.152 292.805 157.8V126.12C292.805 125.768 292.917 125.48 293.141 125.256C293.365 125.032 293.653 124.92 294.005 124.92H299.189C299.509 124.92 299.781 125.032 300.005 125.256C300.229 125.48 300.341 125.768 300.341 126.12V136.92C301.205 135.896 302.261 135.08 303.509 134.472C304.757 133.864 306.261 133.56 308.021 133.56C309.909 133.56 311.573 133.992 313.013 134.856C314.485 135.688 315.637 136.92 316.469 138.552C317.301 140.152 317.717 142.104 317.717 144.408V157.8C317.717 158.152 317.605 158.44 317.381 158.664C317.157 158.888 316.869 159 316.517 159H311.285C310.965 159 310.693 158.888 310.469 158.664C310.245 158.44 310.133 158.152 310.133 157.8V144.696C310.133 143 309.717 141.688 308.885 140.76C308.053 139.8 306.869 139.32 305.333 139.32C303.829 139.32 302.613 139.8 301.685 140.76C300.789 141.688 300.341 143 300.341 144.696V157.8C300.341 158.152 300.229 158.44 300.005 158.664C299.781 158.888 299.509 159 299.189 159H294.005ZM345.191 159.48C341.511 159.48 338.583 158.456 336.407 156.408C334.263 154.36 333.127 151.384 332.999 147.48C332.999 147.224 332.999 146.888 332.999 146.472C332.999 146.024 332.999 145.672 332.999 145.416C333.127 142.952 333.687 140.84 334.679 139.08C335.671 137.288 337.063 135.928 338.855 135C340.647 134.04 342.743 133.56 345.143 133.56C347.831 133.56 350.071 134.12 351.863 135.24C353.687 136.328 355.047 137.832 355.943 139.752C356.871 141.64 357.335 143.816 357.335 146.28V147.384C357.335 147.704 357.207 147.976 356.951 148.2C356.727 148.424 356.455 148.536 356.135 148.536H340.439C340.439 148.568 340.439 148.632 340.439 148.728C340.439 148.792 340.439 148.856 340.439 148.92C340.471 149.944 340.663 150.888 341.015 151.752C341.399 152.584 341.927 153.256 342.599 153.768C343.303 154.28 344.135 154.536 345.095 154.536C345.895 154.536 346.551 154.424 347.063 154.2C347.575 153.976 347.991 153.704 348.311 153.384C348.663 153.064 348.919 152.792 349.079 152.568C349.367 152.248 349.591 152.056 349.751 151.992C349.943 151.896 350.231 151.848 350.615 151.848H355.607C355.927 151.848 356.183 151.944 356.375 152.136C356.599 152.296 356.695 152.536 356.663 152.856C356.631 153.368 356.359 154.008 355.847 154.776C355.367 155.512 354.647 156.248 353.687 156.984C352.727 157.688 351.527 158.28 350.087 158.76C348.679 159.24 347.047 159.48 345.191 159.48ZM340.439 144.168H349.847V144.072C349.847 142.92 349.655 141.928 349.271 141.096C348.919 140.232 348.391 139.56 347.687 139.08C346.983 138.6 346.135 138.36 345.143 138.36C344.151 138.36 343.303 138.6 342.599 139.08C341.895 139.56 341.351 140.232 340.967 141.096C340.615 141.928 340.439 142.92 340.439 144.072V144.168ZM369.477 159.48C367.781 159.48 366.261 159.16 364.917 158.52C363.573 157.848 362.501 156.952 361.701 155.832C360.901 154.712 360.501 153.464 360.501 152.088C360.501 149.816 361.413 148.024 363.237 146.712C365.093 145.4 367.525 144.504 370.533 144.024L376.821 143.112V142.248C376.821 141 376.533 140.04 375.957 139.368C375.381 138.696 374.373 138.36 372.933 138.36C371.877 138.36 371.029 138.568 370.389 138.984C369.749 139.4 369.253 139.944 368.901 140.616C368.645 141.032 368.277 141.24 367.797 141.24H363.237C362.885 141.24 362.613 141.144 362.421 140.952C362.229 140.728 362.149 140.472 362.181 140.184C362.181 139.64 362.389 139 362.805 138.264C363.221 137.528 363.861 136.808 364.725 136.104C365.589 135.368 366.693 134.76 368.037 134.28C369.381 133.8 371.029 133.56 372.981 133.56C374.997 133.56 376.725 133.8 378.165 134.28C379.605 134.76 380.757 135.432 381.621 136.296C382.485 137.16 383.125 138.168 383.541 139.32C383.957 140.44 384.165 141.656 384.165 142.968V157.8C384.165 158.152 384.053 158.44 383.829 158.664C383.605 158.888 383.317 159 382.965 159H378.261C377.941 159 377.669 158.888 377.445 158.664C377.221 158.44 377.109 158.152 377.109 157.8V156.024C376.693 156.632 376.133 157.208 375.429 157.752C374.725 158.264 373.877 158.68 372.885 159C371.925 159.32 370.789 159.48 369.477 159.48ZM371.397 154.488C372.453 154.488 373.397 154.264 374.229 153.816C375.061 153.368 375.717 152.68 376.197 151.752C376.677 150.824 376.917 149.656 376.917 148.248V147.432L372.453 148.152C370.725 148.44 369.461 148.872 368.661 149.448C367.861 150.024 367.461 150.728 367.461 151.56C367.461 152.168 367.637 152.696 367.989 153.144C368.373 153.592 368.869 153.928 369.477 154.152C370.085 154.376 370.725 154.488 371.397 154.488ZM399.817 159.48C397.833 159.48 396.121 159.256 394.681 158.808C393.273 158.328 392.121 157.752 391.225 157.08C390.361 156.408 389.705 155.736 389.257 155.064C388.841 154.36 388.617 153.768 388.585 153.288C388.553 152.936 388.665 152.648 388.921 152.424C389.177 152.2 389.433 152.088 389.689 152.088H394.345C394.441 152.088 394.537 152.104 394.633 152.136C394.729 152.168 394.825 152.248 394.921 152.376C395.337 152.664 395.769 153 396.217 153.384C396.665 153.736 397.177 154.04 397.753 154.296C398.361 154.552 399.113 154.68 400.009 154.68C401.065 154.68 401.961 154.472 402.697 154.056C403.433 153.608 403.801 152.984 403.801 152.184C403.801 151.608 403.625 151.128 403.273 150.744C402.953 150.36 402.329 150.008 401.401 149.688C400.473 149.368 399.097 149.016 397.273 148.632C395.545 148.248 394.073 147.736 392.857 147.096C391.641 146.456 390.729 145.656 390.121 144.696C389.513 143.704 389.209 142.52 389.209 141.144C389.209 139.896 389.593 138.696 390.361 137.544C391.161 136.392 392.329 135.448 393.865 134.712C395.401 133.944 397.321 133.56 399.625 133.56C401.385 133.56 402.921 133.784 404.233 134.232C405.577 134.648 406.697 135.192 407.593 135.864C408.489 136.504 409.161 137.176 409.609 137.88C410.089 138.552 410.345 139.144 410.377 139.656C410.409 139.976 410.313 140.248 410.089 140.472C409.865 140.696 409.609 140.808 409.321 140.808H405.049C404.889 140.808 404.745 140.792 404.617 140.76C404.489 140.696 404.377 140.616 404.281 140.52C403.897 140.264 403.497 139.976 403.081 139.656C402.697 139.304 402.233 139 401.689 138.744C401.145 138.488 400.441 138.36 399.577 138.36C398.521 138.36 397.705 138.6 397.129 139.08C396.585 139.528 396.313 140.104 396.313 140.808C396.313 141.256 396.457 141.672 396.745 142.056C397.033 142.44 397.625 142.792 398.521 143.112C399.417 143.432 400.777 143.768 402.601 144.12C404.777 144.504 406.505 145.08 407.785 145.848C409.065 146.616 409.977 147.512 410.521 148.536C411.097 149.528 411.385 150.6 411.385 151.752C411.385 153.256 410.937 154.6 410.041 155.784C409.145 156.936 407.833 157.848 406.105 158.52C404.409 159.16 402.313 159.48 399.817 159.48ZM427.129 159.48C423.449 159.48 420.521 158.456 418.345 156.408C416.201 154.36 415.065 151.384 414.937 147.48C414.937 147.224 414.937 146.888 414.937 146.472C414.937 146.024 414.937 145.672 414.937 145.416C415.065 142.952 415.625 140.84 416.617 139.08C417.609 137.288 419.001 135.928 420.793 135C422.585 134.04 424.681 133.56 427.081 133.56C429.769 133.56 432.009 134.12 433.801 135.24C435.625 136.328 436.985 137.832 437.881 139.752C438.809 141.64 439.273 143.816 439.273 146.28V147.384C439.273 147.704 439.145 147.976 438.889 148.2C438.665 148.424 438.393 148.536 438.073 148.536H422.377C422.377 148.568 422.377 148.632 422.377 148.728C422.377 148.792 422.377 148.856 422.377 148.92C422.409 149.944 422.601 150.888 422.953 151.752C423.337 152.584 423.865 153.256 424.537 153.768C425.241 154.28 426.073 154.536 427.033 154.536C427.833 154.536 428.489 154.424 429.001 154.2C429.513 153.976 429.929 153.704 430.249 153.384C430.601 153.064 430.857 152.792 431.017 152.568C431.305 152.248 431.529 152.056 431.689 151.992C431.881 151.896 432.169 151.848 432.553 151.848H437.545C437.865 151.848 438.121 151.944 438.313 152.136C438.537 152.296 438.633 152.536 438.601 152.856C438.569 153.368 438.297 154.008 437.785 154.776C437.305 155.512 436.585 156.248 435.625 156.984C434.665 157.688 433.465 158.28 432.025 158.76C430.617 159.24 428.985 159.48 427.129 159.48ZM422.377 144.168H431.785V144.072C431.785 142.92 431.593 141.928 431.209 141.096C430.857 140.232 430.329 139.56 429.625 139.08C428.921 138.6 428.073 138.36 427.081 138.36C426.089 138.36 425.241 138.6 424.537 139.08C423.833 139.56 423.289 140.232 422.905 141.096C422.553 141.928 422.377 142.92 422.377 144.072V144.168Z" fill="white"/>
</svg>
