<svg width="566" height="54" viewBox="0 0 566 54" fill="none" xmlns="http://www.w3.org/2000/svg">
<path d="M18.4261 17.1585H28.0172C30.1433 17.1585 31.8678 19.0719 31.8678 21.0091C31.8678 23.1352 30.1433 24.8597 28.0172 24.8597H18.4261V17.1585Z" stroke="#FFA503" stroke-width="3.50975" stroke-miterlimit="10" stroke-linecap="round" stroke-linejoin="round"/>
<path d="M18.4261 24.836H29.3873C31.8205 24.836 33.7813 26.5605 33.7813 28.6866C33.7813 30.8127 31.8205 32.5372 29.3873 32.5372H18.4261V24.836Z" stroke="#FFA503" stroke-width="3.50975" stroke-miterlimit="10" stroke-linecap="round" stroke-linejoin="round"/>
<path d="M25.1352 32.5137V36.3643" stroke="#FFA503" stroke-width="3.50975" stroke-miterlimit="10" stroke-linecap="round" stroke-linejoin="round"/>
<path d="M20.3397 32.5137V36.3643" stroke="#FFA503" stroke-width="3.50975" stroke-miterlimit="10" stroke-linecap="round" stroke-linejoin="round"/>
<path d="M25.1352 13.3078V17.1584" stroke="#FFA503" stroke-width="3.50975" stroke-miterlimit="10" stroke-linecap="round" stroke-linejoin="round"/>
<path d="M20.3397 13.3078V17.1584" stroke="#FFA503" stroke-width="3.50975" stroke-miterlimit="10" stroke-linecap="round" stroke-linejoin="round"/>
<path d="M22.0642 17.1585H15.3552" stroke="#FFA503" stroke-width="3.50975" stroke-miterlimit="10" stroke-linecap="round" stroke-linejoin="round"/>
<path d="M22.0642 32.5137H15.3552" stroke="#FFA503" stroke-width="3.50975" stroke-miterlimit="10" stroke-linecap="round" stroke-linejoin="round"/>
<path d="M24.5683 45.0418C35.8755 45.0418 45.0418 35.8755 45.0418 24.5683C45.0418 13.261 35.8755 4.09473 24.5683 4.09473C13.2611 4.09473 4.09473 13.261 4.09473 24.5683C4.09473 35.8755 13.2611 45.0418 24.5683 45.0418Z" stroke="#FFA503" stroke-width="3.50975" stroke-miterlimit="10"/>
<path d="M540.568 4.09473L528.284 16.3788L532.379 20.4736L540.568 12.2841L548.758 20.4736L552.852 16.3788L540.568 4.09473Z" stroke="#FFA503" stroke-width="2.8078" stroke-miterlimit="10" stroke-linecap="round" stroke-linejoin="round"/>
<path d="M540.568 45.0419L528.284 32.7578L532.379 28.6631L540.568 36.8525L548.758 28.6631L552.852 32.7578L540.568 45.0419Z" stroke="#FFA503" stroke-width="2.8078" stroke-miterlimit="10" stroke-linecap="round" stroke-linejoin="round"/>
<path d="M556.507 19.8634L551.875 24.496L556.507 29.1286L561.14 24.496L556.507 19.8634Z" stroke="#FFA503" stroke-width="2.8078" stroke-miterlimit="10" stroke-linecap="round" stroke-linejoin="round"/>
<path d="M524.773 19.863L520.141 24.4956L524.773 29.1282L529.406 24.4956L524.773 19.863Z" stroke="#FFA503" stroke-width="2.8078" stroke-miterlimit="10" stroke-linecap="round" stroke-linejoin="round"/>
<path d="M540.423 19.5014L535.356 24.5683L540.423 29.6352L545.49 24.5683L540.423 19.5014Z" stroke="#FFA503" stroke-width="2.8078" stroke-miterlimit="10" stroke-linecap="round" stroke-linejoin="round"/>
<path d="M196.568 45.0418C207.875 45.0418 217.042 35.8755 217.042 24.5683C217.042 13.261 207.875 4.09473 196.568 4.09473C185.261 4.09473 176.095 13.261 176.095 24.5683C176.095 35.8755 185.261 45.0418 196.568 45.0418Z" stroke="#FFA503" stroke-width="3.50975" stroke-miterlimit="10" stroke-linecap="round" stroke-linejoin="round"/>
<path d="M204.348 16.3788H194.111C190.836 16.3788 187.969 19.2451 187.969 22.5209V24.5683V26.6156C187.969 29.8914 190.836 32.7577 194.111 32.7577H204.348" stroke="#FFA503" stroke-width="3.50975" stroke-miterlimit="10" stroke-linecap="round" stroke-linejoin="round"/>
<path d="M204.348 24.5683H187.969" stroke="#FFA503" stroke-width="3.50975" stroke-miterlimit="10" stroke-linecap="round" stroke-linejoin="round"/>
<path d="M281.749 13.1031H286.868L282.568 29.2772H291.167L290.143 35.0098H274.379L280.521 13.1031H281.749Z" stroke="#FFA503" stroke-width="3.50975" stroke-miterlimit="10" stroke-linecap="round" stroke-linejoin="round"/>
<path d="M288.71 22.5209L272.946 25.5919" stroke="#FFA503" stroke-width="3.50975" stroke-miterlimit="10" stroke-linecap="round" stroke-linejoin="round"/>
<path d="M282.568 45.0418C293.875 45.0418 303.042 35.8755 303.042 24.5683C303.042 13.261 293.875 4.09473 282.568 4.09473C271.261 4.09473 262.095 13.261 262.095 24.5683C262.095 35.8755 271.261 45.0418 282.568 45.0418Z" stroke="#FFA503" stroke-width="3.50975" stroke-miterlimit="10" stroke-linecap="round" stroke-linejoin="round"/>
<path d="M384.947 7.16576H355.26C354.646 7.16576 354.032 7.37049 353.623 7.9847L350.552 12.0794C349.528 13.5126 350.552 15.3552 352.189 15.3552H381.876C382.49 15.3552 383.104 15.1504 383.514 14.5362L386.585 10.4415C387.609 9.00837 386.585 7.16576 384.947 7.16576Z" stroke="#FFA503" stroke-width="2.10585" stroke-miterlimit="10"/>
<path d="M352.189 20.4736H381.876C382.49 20.4736 383.104 20.6783 383.514 21.2925L386.585 25.3872C387.609 26.8203 386.585 28.663 384.947 28.663H355.26C354.646 28.663 354.032 28.4582 353.623 27.844L350.552 23.7493C349.528 22.3162 350.552 20.4736 352.189 20.4736Z" stroke="#FFA503" stroke-width="2.10585" stroke-miterlimit="10"/>
<path d="M384.947 33.7812H355.26C354.646 33.7812 354.032 33.986 353.623 34.6002L350.552 38.6949C349.528 40.128 350.552 41.9707 352.189 41.9707H381.876C382.49 41.9707 383.105 41.7659 383.514 41.1517L386.585 37.057C387.609 35.6239 386.585 33.7812 384.947 33.7812Z" stroke="#FFA503" stroke-width="2.10585" stroke-miterlimit="10"/>
<path d="M435.323 11.582L449.04 45.9776C449.859 47.8202 451.292 48.0249 452.521 46.387L471.766 22.0235C472.38 21.2046 472.38 19.9762 471.561 19.362L465.214 13.0152C465.01 12.6057 464.396 12.401 464.191 12.401L437.575 8.92046C435.733 8.51098 434.709 9.7394 435.323 11.582Z" stroke="#FFA503" stroke-width="3.50975" stroke-miterlimit="10" stroke-linecap="round" stroke-linejoin="round"/>
<path d="M450.474 47.2061L452.521 24.6852L436.142 10.149" stroke="#FFA503" stroke-width="3.50975" stroke-miterlimit="10" stroke-linecap="round" stroke-linejoin="round"/>
<path d="M464.805 12.4011L452.521 24.6852L470.947 21" stroke="#FFA503" stroke-width="3.50975" stroke-miterlimit="10" stroke-linecap="round" stroke-linejoin="round"/>
<path d="M100.127 18.6309L109.954 14.3315C110.364 14.1268 110.773 14.1268 111.387 14.3315L121.214 18.6309C122.033 19.0404 122.852 18.0167 122.238 17.1978L112.001 4.70893C111.387 3.88999 110.159 3.88999 109.545 4.70893L99.3078 17.1978C98.4888 18.0167 99.3078 19.0404 100.127 18.6309Z" stroke="#FFA503" stroke-width="2.8078" stroke-miterlimit="10" stroke-linecap="round" stroke-linejoin="round"/>
<path d="M100.127 30.5056L109.954 34.805C110.364 35.0098 110.773 35.0098 111.387 34.805L121.214 30.5056C122.033 30.0961 122.852 31.1198 122.238 31.9387L112.001 44.4276C111.387 45.2465 110.159 45.2465 109.545 44.4276L99.3078 31.9387C98.4888 31.1198 99.3078 30.0961 100.127 30.5056Z" stroke="#FFA503" stroke-width="2.8078" stroke-miterlimit="10" stroke-linecap="round" stroke-linejoin="round"/>
<path d="M110.568 19.2451L99.922 24.5683L110.568 29.8914L121.215 24.5683L110.568 19.2451Z" stroke="#FFA503" stroke-width="2.8078" stroke-miterlimit="10" stroke-linecap="round" stroke-linejoin="round"/>
</svg>
