<svg width="92" height="48" viewBox="0 0 92 48" fill="none" xmlns="http://www.w3.org/2000/svg">
<path d="M19.5682 32.3889V30.7182C19.5682 30.4988 19.526 30.2816 19.4441 30.0788C19.3621 29.8762 19.242 29.6921 19.0906 29.5368C18.9391 29.3817 18.7593 29.2587 18.5616 29.1747C18.3637 29.0908 18.1516 29.0475 17.9375 29.0475H11.4143C9.25189 29.0475 7.17803 28.1675 5.64894 26.601C4.11987 25.0344 3.26083 22.9098 3.26079 20.6944C3.26079 19.5974 3.4717 18.5112 3.88145 17.4978C4.29121 16.4843 4.89179 15.5635 5.64892 14.7878C6.40605 14.0121 7.30488 13.3968 8.29411 12.9771C9.28333 12.5573 10.3436 12.3412 11.4143 12.3412H17.937C18.1512 12.3413 18.3633 12.2981 18.5612 12.2142C18.7591 12.1303 18.939 12.0072 19.0904 11.8521C19.2419 11.697 19.362 11.5128 19.4441 11.31C19.526 11.1073 19.5682 10.89 19.5682 10.6706V8.99994H11.4147C9.91568 8.99994 8.43135 9.30243 7.04644 9.89013C5.66154 10.4778 4.40319 11.3392 3.34325 12.4252C2.28329 13.5111 1.44249 14.8003 0.868856 16.2191C0.295222 17.638 -1.60606e-05 19.1587 6.55274e-10 20.6944C-5.67693e-10 23.7959 1.20261 26.7705 3.34327 28.9636C5.48394 31.1567 8.38731 32.3889 11.4147 32.3889H19.5682Z" fill="url(#paint0_linear_3_70)"/>
<path d="M6.52219 20.6944C6.52219 22.0236 7.03758 23.2984 7.95499 24.2382C8.87239 25.1781 10.1167 25.7061 11.4141 25.7061H19.5682C20.4332 25.7061 21.2626 26.0582 21.8742 26.6848C22.4858 27.3114 22.8295 28.1612 22.8295 29.0474V32.3887H26.0909V29.0475C26.0909 27.2753 25.4037 25.5756 24.1805 24.3223C22.9572 23.0691 21.2981 22.3651 19.5682 22.3651H11.4143C10.9818 22.3651 10.567 22.189 10.2612 21.8758C9.9554 21.5624 9.7836 21.1375 9.7836 20.6944C9.7836 20.2513 9.9554 19.8264 10.2612 19.5131C10.567 19.1998 10.9818 19.0237 11.4143 19.0237H19.5682C21.2981 19.0237 22.9572 18.3197 24.1805 17.0665C25.4037 15.8133 26.0909 14.1136 26.0909 12.3412V8.99994H22.829V12.3412C22.829 13.2273 22.4855 14.0771 21.874 14.7036C21.2625 15.3302 20.4331 15.6823 19.5682 15.6824H11.4143C10.7719 15.6824 10.1357 15.812 9.54213 16.0639C8.94858 16.3157 8.40926 16.6849 7.95499 17.1503C7.50071 17.6157 7.14036 18.1683 6.89452 18.7764C6.64868 19.3845 6.52216 20.0362 6.52219 20.6944Z" fill="url(#paint1_linear_3_70)"/>
<path d="M35.4773 12.608C37.7444 11.8722 40.0512 11.5043 42.3978 11.5043C44.7444 11.5043 46.5341 11.892 47.7671 12.6676C48.0455 13.5426 48.1946 14.3778 48.2145 15.1733C48.2145 17.0426 47.439 18.6136 45.8878 19.8864C44.3367 21.1591 42.348 22.0739 39.9219 22.6307L39.3253 28.0895L36.8793 28.3281L35.4773 12.608ZM43.5015 15.8892C43.5015 14.6364 42.9944 13.7017 41.9801 13.0852C41.7017 13.0852 41.3438 13.1449 40.9063 13.2642L40.0711 20.9602C41.1449 20.3636 41.9801 19.598 42.5767 18.6634C43.1932 17.7287 43.5015 16.804 43.5015 15.8892ZM49.9148 19.946C49.9148 17.858 51.0185 15.9489 53.2259 14.2188L57.223 16.9332C55.4134 18.0866 54.5086 19.2997 54.5086 20.5724C54.5086 21.2486 54.8765 22.1236 55.6122 23.1974C56.3679 24.2713 56.7458 25.1065 56.7458 25.7031C56.7458 27.831 55.2742 29.4815 52.331 30.6548L51.2571 29.1932C52.5497 28.4972 53.1961 27.7415 53.1961 26.9261C53.1961 26.0909 52.6492 25.0668 51.5554 23.8537C51.1378 23.3963 50.76 22.8196 50.4219 22.1236C50.0838 21.4077 49.9148 20.6818 49.9148 19.946ZM61.6378 28.358L60.4148 16.2472L65.635 15.4716L64.054 28.1491L61.6378 28.358ZM61.1605 13.5625C60.723 13.1051 60.5043 12.5682 60.5043 11.9517C60.5043 11.3153 60.723 10.7784 61.1605 10.3409C61.6179 9.90341 62.1549 9.68466 62.7713 9.68466C63.3878 9.68466 63.9148 9.90341 64.3523 10.3409C64.8097 10.7784 65.0384 11.3153 65.0384 11.9517C65.0384 12.5682 64.8097 13.1051 64.3523 13.5625C63.9148 14 63.3878 14.2188 62.7713 14.2188C62.1549 14.2188 61.6179 14 61.1605 13.5625ZM71.0043 28.358L69.9603 18.5142L67.6932 18.8125L67.5441 16.3068L69.6918 16.1875L69.3338 12.7869L75.4191 11.9517L74.912 15.919L77.358 15.7997L77.2685 17.4403L74.6733 17.7983L73.4205 28.1491L71.0043 28.358ZM83.5924 14.8153C87.5299 16.3864 89.4986 18.3551 89.4986 20.7216C89.4986 21.9545 89.1506 22.8395 88.4546 23.3764C87.7586 23.9134 86.6449 24.1818 85.1137 24.1818C83.6023 24.1818 82.4588 24.0923 81.6833 23.9134C81.385 24.669 81.2259 25.4645 81.206 26.2997C81.9418 26.3991 82.9659 26.4489 84.2784 26.4489C85.5909 26.4489 87.0029 26.1903 88.5142 25.6733L89.2301 28.0298C88.037 28.4077 86.7046 28.5966 85.233 28.5966C82.5881 28.5966 80.6492 28.1094 79.4162 27.1349C79.1577 25.9815 79.0284 24.8977 79.0284 23.8835C79.0284 21.8352 79.4759 19.9858 80.3708 18.3352C81.2855 16.6648 82.3594 15.4915 83.5924 14.8153ZM82.1605 22.7798C82.3594 22.7997 82.8864 22.8097 83.7415 22.8097C84.6165 22.8097 85.6108 22.6903 86.7245 22.4517C86.7642 22.1534 86.7941 21.8452 86.814 21.527C86.814 20.5526 86.5355 19.6179 85.9787 18.723C84.348 19.7969 83.0753 21.1491 82.1605 22.7798Z" fill="#FFA503"/>
<defs>
<linearGradient id="paint0_linear_3_70" x1="2.9548" y1="20.6944" x2="28.0609" y2="20.6944" gradientUnits="userSpaceOnUse">
<stop stop-color="#F54A48"/>
<stop offset="1" stop-color="#FA982F"/>
</linearGradient>
<linearGradient id="paint1_linear_3_70" x1="2.94112" y1="20.6943" x2="28.0673" y2="20.6943" gradientUnits="userSpaceOnUse">
<stop stop-color="#FFA503"/>
<stop offset="1" stop-color="#FA982F"/>
</linearGradient>
</defs>
</svg>
