<svg width="55" height="55" viewBox="0 0 55 55" fill="none" xmlns="http://www.w3.org/2000/svg">
<path d="M18.768 39.2423L15.3557 35.8299" stroke="white" stroke-width="2.41291" stroke-linecap="round" stroke-linejoin="round"/>
<path d="M38.3039 15.2277C34.6569 14.8225 21.402 14.5346 17.0619 30.7114L23.8866 37.5361C39.9461 33.0787 39.7435 19.9304 39.3703 16.2941C39.3456 16.0196 39.2254 15.7624 39.0305 15.5676C38.8356 15.3727 38.5784 15.2524 38.3039 15.2277Z" stroke="white" stroke-width="2.41291" stroke-linecap="round" stroke-linejoin="round"/>
<path d="M23.3001 19.7597L15.9422 20.4208C15.7594 20.4349 15.5827 20.4926 15.4268 20.5891C15.2709 20.6856 15.1405 20.818 15.0464 20.9754L10.4184 28.2266C10.3088 28.3995 10.2451 28.5973 10.2331 28.8016C10.221 29.0059 10.2612 29.2098 10.3497 29.3943C10.4382 29.5788 10.5722 29.7378 10.739 29.8562C10.9059 29.9747 11.1001 30.0487 11.3035 30.0715L17.0618 30.7113" stroke="white" stroke-width="2.41291" stroke-linecap="round" stroke-linejoin="round"/>
<path d="M34.8595 31.1486L34.177 38.6558C34.1629 38.8386 34.1052 39.0153 34.0087 39.1711C33.9123 39.327 33.7798 39.4574 33.6225 39.5515L26.3712 44.1796C26.1984 44.2891 26.0005 44.3529 25.7962 44.3649C25.592 44.3769 25.388 44.3368 25.2035 44.2483C25.019 44.1597 24.8601 44.0258 24.7416 43.8589C24.6232 43.6921 24.5491 43.4978 24.5264 43.2945L23.8866 37.5361" stroke="white" stroke-width="2.41291" stroke-linecap="round" stroke-linejoin="round"/>
<path d="M29.4317 25.1662C30.1384 25.873 31.2842 25.873 31.9909 25.1662C32.6977 24.4595 32.6977 23.3137 31.9909 22.607C31.2842 21.9002 30.1384 21.9002 29.4317 22.607C28.7249 23.3137 28.7249 24.4595 29.4317 25.1662Z" fill="white"/>
</svg>
