<svg width="493" height="28" viewBox="0 0 493 28" fill="none" xmlns="http://www.w3.org/2000/svg">
<path d="M7.02275 21.3492C6.8364 21.3492 6.67801 21.284 6.54756 21.1535C6.41712 21.0231 6.3519 20.8647 6.3519 20.6783V5.22066H1.18071C0.994356 5.22066 0.835959 5.15544 0.705515 5.02499C0.57507 4.89455 0.509848 4.73615 0.509848 4.5498V2.48132C0.509848 2.27634 0.57507 2.10863 0.705515 1.97818C0.835959 1.84774 0.994356 1.78251 1.18071 1.78251H15.4364C15.6414 1.78251 15.8091 1.84774 15.9396 1.97818C16.07 2.10863 16.1352 2.27634 16.1352 2.48132V4.5498C16.1352 4.73615 16.07 4.89455 15.9396 5.02499C15.8091 5.15544 15.6414 5.22066 15.4364 5.22066H10.2932V20.6783C10.2932 20.8647 10.228 21.0231 10.0975 21.1535C9.96707 21.284 9.79936 21.3492 9.59437 21.3492H7.02275ZM17.4507 21.3492C17.2644 21.3492 17.106 21.284 16.9755 21.1535C16.8451 21.0231 16.7799 20.8647 16.7799 20.6783V7.51275C16.7799 7.30777 16.8451 7.14005 16.9755 7.00961C17.106 6.87917 17.2644 6.81394 17.4507 6.81394H19.7149C19.9012 6.81394 20.0596 6.87917 20.1901 7.00961C20.3392 7.14005 20.4137 7.30777 20.4137 7.51275V8.6588C20.8423 8.06248 21.392 7.60593 22.0629 7.28913C22.7524 6.97234 23.5444 6.81394 24.4388 6.81394H25.5849C25.7899 6.81394 25.9483 6.87917 26.0601 7.00961C26.1905 7.14005 26.2557 7.29845 26.2557 7.4848V9.49737C26.2557 9.68372 26.1905 9.84212 26.0601 9.97256C25.9483 10.103 25.7899 10.1682 25.5849 10.1682H23.4046C22.5101 10.1682 21.8113 10.4198 21.3082 10.9229C20.8237 11.4261 20.5814 12.1156 20.5814 12.9914V20.6783C20.5814 20.8647 20.5162 21.0231 20.3857 21.1535C20.2553 21.284 20.0876 21.3492 19.8826 21.3492H17.4507ZM32.4382 21.6287C31.4692 21.6287 30.5934 21.4424 29.8107 21.0697C29.028 20.6783 28.4038 20.1659 27.9379 19.5323C27.4907 18.8801 27.267 18.1533 27.267 17.352C27.267 16.0475 27.7888 15.0133 28.8324 14.2493C29.8946 13.4666 31.2922 12.9448 33.0252 12.6839L36.8547 12.1249V11.5379C36.8547 10.7552 36.659 10.1496 36.2677 9.72099C35.8764 9.29239 35.2055 9.07809 34.2551 9.07809C33.5843 9.07809 33.0346 9.21785 32.606 9.49737C32.196 9.75826 31.8885 10.1123 31.6835 10.5596C31.5344 10.8018 31.3201 10.9229 31.0406 10.9229H28.8324C28.6274 10.9229 28.469 10.867 28.3572 10.7552C28.264 10.6434 28.2174 10.4943 28.2174 10.308C28.2361 10.0098 28.3572 9.64645 28.5808 9.21785C28.8044 8.78925 29.1585 8.37928 29.643 7.98794C30.1275 7.57798 30.7518 7.23323 31.5158 6.9537C32.2798 6.67418 33.2023 6.53442 34.2831 6.53442C35.4571 6.53442 36.4447 6.6835 37.246 6.98166C38.066 7.26118 38.7182 7.6432 39.2027 8.12771C39.6872 8.61221 40.0413 9.18058 40.2649 9.8328C40.4885 10.485 40.6003 11.1745 40.6003 11.9013V20.6783C40.6003 20.8647 40.5351 21.0231 40.4047 21.1535C40.2742 21.284 40.1158 21.3492 39.9295 21.3492H37.6653C37.4603 21.3492 37.2926 21.284 37.1622 21.1535C37.0504 21.0231 36.9945 20.8647 36.9945 20.6783V19.5882C36.7522 19.9422 36.4261 20.2777 36.0161 20.5945C35.6062 20.8926 35.103 21.1442 34.5067 21.3492C33.929 21.5355 33.2395 21.6287 32.4382 21.6287ZM33.3886 18.9732C34.0408 18.9732 34.6278 18.8335 35.1496 18.5539C35.69 18.2744 36.1093 17.8458 36.4075 17.2681C36.7243 16.6718 36.8827 15.9264 36.8827 15.0319V14.4449L34.0874 14.8922C32.988 15.0599 32.168 15.3301 31.6276 15.7028C31.0872 16.0755 30.817 16.5321 30.817 17.0725C30.817 17.4824 30.9381 17.8365 31.1804 18.1347C31.4413 18.4142 31.7674 18.6285 32.1587 18.7776C32.55 18.908 32.96 18.9732 33.3886 18.9732ZM49.5811 21.6287C48.6121 21.6287 47.7549 21.4703 47.0095 21.1535C46.2827 20.8181 45.6771 20.3522 45.1926 19.7559C44.7081 19.1596 44.3354 18.4608 44.0745 17.6595C43.8136 16.8395 43.6645 15.9451 43.6273 14.976C43.6086 14.6406 43.5993 14.3425 43.5993 14.0816C43.5993 13.802 43.6086 13.4946 43.6273 13.1591C43.6645 12.2274 43.8043 11.3609 44.0466 10.5596C44.3074 9.75826 44.6801 9.05945 45.1647 8.46313C45.6678 7.84818 46.2827 7.37299 47.0095 7.03756C47.7549 6.70213 48.6121 6.53442 49.5811 6.53442C50.5874 6.53442 51.4353 6.71145 52.1248 7.06551C52.8329 7.40094 53.4199 7.83886 53.8858 8.37928V2.17385C53.8858 1.9875 53.9417 1.8291 54.0535 1.69866C54.184 1.56821 54.3517 1.50299 54.5567 1.50299H56.9326C57.119 1.50299 57.2774 1.56821 57.4078 1.69866C57.5382 1.8291 57.6035 1.9875 57.6035 2.17385V20.6783C57.6035 20.8647 57.5382 21.0231 57.4078 21.1535C57.2774 21.284 57.119 21.3492 56.9326 21.3492H54.7244C54.5194 21.3492 54.3517 21.284 54.2212 21.1535C54.1094 21.0231 54.0535 20.8647 54.0535 20.6783V19.6441C53.5876 20.2218 52.9913 20.697 52.2646 21.0697C51.5564 21.4424 50.662 21.6287 49.5811 21.6287ZM50.6154 18.6378C51.398 18.6378 52.0223 18.4608 52.4882 18.1067C52.954 17.7526 53.2988 17.3054 53.5224 16.765C53.746 16.2059 53.8672 15.6376 53.8858 15.0599C53.9044 14.7245 53.9137 14.3704 53.9137 13.9977C53.9137 13.6064 53.9044 13.243 53.8858 12.9076C53.8672 12.3485 53.7367 11.8174 53.4945 11.3143C53.2522 10.7925 52.8981 10.3639 52.4323 10.0285C51.9664 9.69304 51.3608 9.52532 50.6154 9.52532C49.8327 9.52532 49.2084 9.70236 48.7426 10.0564C48.2953 10.3918 47.9692 10.8391 47.7642 11.3981C47.5592 11.9572 47.4381 12.5721 47.4008 13.243C47.3822 13.802 47.3822 14.3611 47.4008 14.9201C47.4381 15.591 47.5592 16.2059 47.7642 16.765C47.9692 17.324 48.2953 17.7806 48.7426 18.1347C49.2084 18.4701 49.8327 18.6378 50.6154 18.6378ZM67.5903 21.6287C65.5218 21.6287 63.882 21.0324 62.6707 19.8398C61.4594 18.6471 60.8072 16.9513 60.714 14.7524C60.6954 14.5661 60.6861 14.3331 60.6861 14.0536C60.6861 13.7555 60.6954 13.5225 60.714 13.3548C60.7886 11.9572 61.1054 10.7459 61.6644 9.72099C62.2421 8.69607 63.0341 7.9134 64.0404 7.37299C65.0467 6.81394 66.23 6.53442 67.5903 6.53442C69.0998 6.53442 70.3669 6.85121 71.3918 7.4848C72.4168 8.09975 73.1901 8.96628 73.7119 10.0844C74.2337 11.1838 74.4946 12.4603 74.4946 13.9138V14.5008C74.4946 14.6872 74.4293 14.8456 74.2989 14.976C74.1684 15.1065 74.0007 15.1717 73.7958 15.1717H64.5156C64.5156 15.1717 64.5156 15.1997 64.5156 15.2556C64.5156 15.3115 64.5156 15.3581 64.5156 15.3953C64.5342 16.0475 64.6553 16.6532 64.8789 17.2122C65.1212 17.7526 65.4659 18.1906 65.9132 18.526C66.3791 18.8614 66.9288 19.0291 67.5624 19.0291C68.0841 19.0291 68.5221 18.9546 68.8761 18.8055C69.2302 18.6378 69.519 18.4515 69.7427 18.2465C69.9663 18.0415 70.1247 17.8738 70.2178 17.7433C70.3856 17.5197 70.516 17.3893 70.6092 17.352C70.721 17.2961 70.8794 17.2681 71.0844 17.2681H73.4883C73.6746 17.2681 73.8237 17.324 73.9355 17.4358C74.066 17.5477 74.1219 17.6874 74.1032 17.8551C74.0846 18.1533 73.9262 18.5167 73.628 18.9453C73.3485 19.3739 72.9385 19.7932 72.3981 20.2031C71.8577 20.6131 71.1775 20.9578 70.3576 21.2374C69.5563 21.4983 68.6339 21.6287 67.5903 21.6287ZM64.5156 12.8237H70.693V12.7398C70.693 12.0131 70.5719 11.3795 70.3297 10.8391C70.0874 10.2987 69.7333 9.87007 69.2675 9.55328C68.8016 9.23648 68.2425 9.07809 67.5903 9.07809C66.9381 9.07809 66.3791 9.23648 65.9132 9.55328C65.4473 9.87007 65.0932 10.2987 64.851 10.8391C64.6274 11.3795 64.5156 12.0131 64.5156 12.7398V12.8237ZM87.1906 21.3492C86.9297 21.3492 86.7341 21.284 86.6036 21.1535C86.4732 21.0231 86.3614 20.8554 86.2682 20.6504L82.271 7.68047C82.2524 7.58729 82.243 7.50344 82.243 7.4289C82.243 7.26118 82.299 7.12142 82.4108 7.00961C82.5412 6.87917 82.681 6.81394 82.83 6.81394H84.8985C85.1221 6.81394 85.2992 6.87917 85.4296 7.00961C85.5601 7.12142 85.6346 7.23323 85.6532 7.34504L88.3926 16.5973L91.2996 7.4289C91.3369 7.29845 91.4207 7.16801 91.5512 7.03756C91.6816 6.88848 91.8773 6.81394 92.1382 6.81394H93.5358C93.7967 6.81394 93.9924 6.88848 94.1228 7.03756C94.2533 7.16801 94.3371 7.29845 94.3744 7.4289L97.2814 16.5973L100.021 7.34504C100.039 7.23323 100.105 7.12142 100.216 7.00961C100.347 6.87917 100.524 6.81394 100.748 6.81394H102.816C102.984 6.81394 103.123 6.87917 103.235 7.00961C103.366 7.12142 103.431 7.26118 103.431 7.4289C103.431 7.50344 103.412 7.58729 103.375 7.68047L99.3779 20.6504C99.322 20.8554 99.2195 21.0231 99.0704 21.1535C98.9399 21.284 98.7443 21.3492 98.4834 21.3492H96.6665C96.4056 21.3492 96.2006 21.284 96.0515 21.1535C95.9024 21.0231 95.8 20.8554 95.744 20.6504L92.837 11.8174L89.93 20.6504C89.8554 20.8554 89.7436 21.0231 89.5945 21.1535C89.4641 21.284 89.2591 21.3492 88.9796 21.3492H87.1906ZM106.822 21.3492C106.636 21.3492 106.477 21.284 106.347 21.1535C106.216 21.0231 106.151 20.8647 106.151 20.6783V7.4848C106.151 7.29845 106.216 7.14005 106.347 7.00961C106.477 6.87917 106.636 6.81394 106.822 6.81394H109.142C109.347 6.81394 109.505 6.87917 109.617 7.00961C109.748 7.14005 109.813 7.29845 109.813 7.4848V20.6783C109.813 20.8647 109.748 21.0231 109.617 21.1535C109.505 21.284 109.347 21.3492 109.142 21.3492H106.822ZM106.71 4.41004C106.505 4.41004 106.337 4.35413 106.207 4.24232C106.095 4.11188 106.039 3.94417 106.039 3.73918V1.72661C106.039 1.54026 106.095 1.38186 106.207 1.25142C106.337 1.12098 106.505 1.05575 106.71 1.05575H109.254C109.459 1.05575 109.626 1.12098 109.757 1.25142C109.887 1.38186 109.953 1.54026 109.953 1.72661V3.73918C109.953 3.94417 109.887 4.11188 109.757 4.24232C109.626 4.35413 109.459 4.41004 109.254 4.41004H106.71ZM120.09 21.3492C118.972 21.3492 118.031 21.1535 117.267 20.7622C116.503 20.3708 115.935 19.7932 115.562 19.0291C115.189 18.2465 115.003 17.2775 115.003 16.1221V9.7769H112.795C112.608 9.7769 112.45 9.71167 112.319 9.58123C112.189 9.45078 112.124 9.29239 112.124 9.10604V7.4848C112.124 7.29845 112.189 7.14005 112.319 7.00961C112.45 6.87917 112.608 6.81394 112.795 6.81394H115.003V2.17385C115.003 1.9875 115.059 1.8291 115.171 1.69866C115.301 1.56821 115.469 1.50299 115.674 1.50299H117.938C118.124 1.50299 118.283 1.56821 118.413 1.69866C118.543 1.8291 118.609 1.9875 118.609 2.17385V6.81394H122.103C122.289 6.81394 122.447 6.87917 122.578 7.00961C122.708 7.14005 122.774 7.29845 122.774 7.4848V9.10604C122.774 9.29239 122.708 9.45078 122.578 9.58123C122.447 9.71167 122.289 9.7769 122.103 9.7769H118.609V15.8426C118.609 16.6066 118.739 17.2029 119 17.6315C119.28 18.0601 119.755 18.2744 120.426 18.2744H122.354C122.541 18.2744 122.699 18.3396 122.829 18.4701C122.96 18.6005 123.025 18.7589 123.025 18.9453V20.6783C123.025 20.8647 122.96 21.0231 122.829 21.1535C122.699 21.284 122.541 21.3492 122.354 21.3492H120.09ZM126.204 21.3492C126.017 21.3492 125.859 21.284 125.728 21.1535C125.598 21.0231 125.533 20.8647 125.533 20.6783V2.17385C125.533 1.9875 125.598 1.8291 125.728 1.69866C125.859 1.56821 126.017 1.50299 126.204 1.50299H128.691C128.896 1.50299 129.055 1.56821 129.167 1.69866C129.297 1.8291 129.362 1.9875 129.362 2.17385V8.54699C129.865 7.95067 130.48 7.46617 131.207 7.09347C131.934 6.72077 132.828 6.53442 133.891 6.53442C135.027 6.53442 136.015 6.79531 136.853 7.31709C137.711 7.82023 138.372 8.53767 138.838 9.46942C139.304 10.4012 139.537 11.5193 139.537 12.8237V20.6783C139.537 20.8647 139.472 21.0231 139.341 21.1535C139.211 21.284 139.052 21.3492 138.866 21.3492H136.35C136.164 21.3492 136.006 21.284 135.875 21.1535C135.745 21.0231 135.679 20.8647 135.679 20.6783V12.9914C135.679 11.9106 135.409 11.0627 134.869 10.4478C134.347 9.8328 133.583 9.52532 132.577 9.52532C131.608 9.52532 130.825 9.8328 130.229 10.4478C129.651 11.0627 129.362 11.9106 129.362 12.9914V20.6783C129.362 20.8647 129.297 21.0231 129.167 21.1535C129.055 21.284 128.896 21.3492 128.691 21.3492H126.204ZM153.693 21.6287C152.724 21.6287 151.848 21.4424 151.065 21.0697C150.282 20.6783 149.658 20.1659 149.192 19.5323C148.745 18.8801 148.521 18.1533 148.521 17.352C148.521 16.0475 149.043 15.0133 150.087 14.2493C151.149 13.4666 152.547 12.9448 154.28 12.6839L158.109 12.1249V11.5379C158.109 10.7552 157.913 10.1496 157.522 9.72099C157.131 9.29239 156.46 9.07809 155.51 9.07809C154.839 9.07809 154.289 9.21785 153.86 9.49737C153.45 9.75826 153.143 10.1123 152.938 10.5596C152.789 10.8018 152.575 10.9229 152.295 10.9229H150.087C149.882 10.9229 149.723 10.867 149.612 10.7552C149.518 10.6434 149.472 10.4943 149.472 10.308C149.49 10.0098 149.612 9.64645 149.835 9.21785C150.059 8.78925 150.413 8.37928 150.897 7.98794C151.382 7.57798 152.006 7.23323 152.77 6.9537C153.534 6.67418 154.457 6.53442 155.537 6.53442C156.711 6.53442 157.699 6.6835 158.5 6.98166C159.32 7.26118 159.973 7.6432 160.457 8.12771C160.942 8.61221 161.296 9.18058 161.519 9.8328C161.743 10.485 161.855 11.1745 161.855 11.9013V20.6783C161.855 20.8647 161.789 21.0231 161.659 21.1535C161.529 21.284 161.37 21.3492 161.184 21.3492H158.92C158.715 21.3492 158.547 21.284 158.417 21.1535C158.305 21.0231 158.249 20.8647 158.249 20.6783V19.5882C158.007 19.9422 157.68 20.2777 157.271 20.5945C156.861 20.8926 156.357 21.1442 155.761 21.3492C155.183 21.5355 154.494 21.6287 153.693 21.6287ZM154.643 18.9732C155.295 18.9732 155.882 18.8335 156.404 18.5539C156.944 18.2744 157.364 17.8458 157.662 17.2681C157.979 16.6718 158.137 15.9264 158.137 15.0319V14.4449L155.342 14.8922C154.242 15.0599 153.422 15.3301 152.882 15.7028C152.342 16.0755 152.071 16.5321 152.071 17.0725C152.071 17.4824 152.192 17.8365 152.435 18.1347C152.696 18.4142 153.022 18.6285 153.413 18.7776C153.804 18.908 154.214 18.9732 154.643 18.9732ZM166.112 21.3492C165.925 21.3492 165.767 21.284 165.636 21.1535C165.506 21.0231 165.441 20.8647 165.441 20.6783V7.4848C165.441 7.29845 165.506 7.14005 165.636 7.00961C165.767 6.87917 165.925 6.81394 166.112 6.81394H168.404C168.59 6.81394 168.748 6.87917 168.879 7.00961C169.009 7.14005 169.075 7.29845 169.075 7.4848V8.63085C169.559 8.03453 170.174 7.54071 170.919 7.14937C171.683 6.7394 172.624 6.53442 173.743 6.53442C174.879 6.53442 175.867 6.79531 176.706 7.31709C177.544 7.82023 178.187 8.53767 178.634 9.46942C179.1 10.4012 179.333 11.5193 179.333 12.8237V20.6783C179.333 20.8647 179.268 21.0231 179.137 21.1535C179.007 21.284 178.849 21.3492 178.662 21.3492H176.202C176.016 21.3492 175.858 21.284 175.727 21.1535C175.597 21.0231 175.532 20.8647 175.532 20.6783V12.9914C175.532 11.9106 175.261 11.0627 174.721 10.4478C174.199 9.8328 173.435 9.52532 172.429 9.52532C171.46 9.52532 170.686 9.8328 170.109 10.4478C169.531 11.0627 169.242 11.9106 169.242 12.9914V20.6783C169.242 20.8647 169.177 21.0231 169.047 21.1535C168.916 21.284 168.758 21.3492 168.571 21.3492H166.112ZM185.047 26.6601C184.898 26.6601 184.768 26.6042 184.656 26.4924C184.544 26.3806 184.488 26.2502 184.488 26.1011C184.488 26.0265 184.488 25.952 184.488 25.8775C184.507 25.8216 184.544 25.747 184.6 25.6538L186.78 20.4827L181.413 7.82023C181.339 7.63388 181.301 7.50344 181.301 7.4289C181.32 7.26118 181.385 7.12142 181.497 7.00961C181.609 6.87917 181.749 6.81394 181.916 6.81394H184.181C184.404 6.81394 184.572 6.86985 184.684 6.98166C184.796 7.09347 184.879 7.21459 184.935 7.34504L188.653 16.4855L192.482 7.34504C192.538 7.19596 192.622 7.07483 192.734 6.98166C192.846 6.86985 193.014 6.81394 193.237 6.81394H195.473C195.622 6.81394 195.753 6.86985 195.865 6.98166C195.995 7.09347 196.06 7.22391 196.06 7.37299C196.06 7.4848 196.023 7.63388 195.949 7.82023L188.038 26.129C187.963 26.2781 187.87 26.3992 187.758 26.4924C187.647 26.6042 187.479 26.6601 187.255 26.6601H185.047ZM210.55 21.6287C209.059 21.6287 207.801 21.3678 206.776 20.846C205.77 20.3243 204.997 19.5882 204.456 18.6378C203.935 17.6874 203.636 16.5786 203.562 15.3115C203.543 14.976 203.534 14.5661 203.534 14.0816C203.534 13.5971 203.543 13.1871 203.562 12.8517C203.636 11.5658 203.944 10.4571 204.484 9.52532C205.043 8.57494 205.826 7.83886 206.832 7.31709C207.857 6.79531 209.096 6.53442 210.55 6.53442C212.003 6.53442 213.233 6.79531 214.24 7.31709C215.265 7.83886 216.047 8.57494 216.588 9.52532C217.147 10.4571 217.463 11.5658 217.538 12.8517C217.557 13.1871 217.566 13.5971 217.566 14.0816C217.566 14.5661 217.557 14.976 217.538 15.3115C217.463 16.5786 217.156 17.6874 216.616 18.6378C216.094 19.5882 215.32 20.3243 214.296 20.846C213.289 21.3678 212.041 21.6287 210.55 21.6287ZM210.55 18.8614C211.538 18.8614 212.302 18.5539 212.842 17.939C213.382 17.3054 213.681 16.383 213.737 15.1717C213.755 14.8922 213.764 14.5288 213.764 14.0816C213.764 13.6343 213.755 13.2709 213.737 12.9914C213.681 11.7988 213.382 10.8857 212.842 10.2521C212.302 9.6185 211.538 9.30171 210.55 9.30171C209.562 9.30171 208.798 9.6185 208.258 10.2521C207.717 10.8857 207.419 11.7988 207.363 12.9914C207.345 13.2709 207.335 13.6343 207.335 14.0816C207.335 14.5288 207.345 14.8922 207.363 15.1717C207.419 16.383 207.717 17.3054 208.258 17.939C208.798 18.5539 209.562 18.8614 210.55 18.8614ZM222.735 21.3492C222.549 21.3492 222.391 21.284 222.26 21.1535C222.13 21.0231 222.065 20.8647 222.065 20.6783V9.7769H219.8C219.614 9.7769 219.456 9.71167 219.325 9.58123C219.195 9.45078 219.13 9.29239 219.13 9.10604V7.4848C219.13 7.29845 219.195 7.14005 219.325 7.00961C219.456 6.87917 219.614 6.81394 219.8 6.81394H222.065V5.66789C222.065 4.5498 222.27 3.62737 222.68 2.90061C223.089 2.15521 223.695 1.59616 224.496 1.22347C225.298 0.850769 226.313 0.66442 227.543 0.66442H229.444C229.649 0.66442 229.807 0.729642 229.919 0.860086C230.05 0.990531 230.115 1.14893 230.115 1.33528V2.95651C230.115 3.14286 230.05 3.30126 229.919 3.4317C229.807 3.56215 229.649 3.62737 229.444 3.62737H227.655C226.91 3.62737 226.397 3.81372 226.118 4.18642C225.838 4.55912 225.698 5.09953 225.698 5.80766V6.81394H229.164C229.369 6.81394 229.528 6.87917 229.64 7.00961C229.77 7.14005 229.835 7.29845 229.835 7.4848V9.10604C229.835 9.29239 229.77 9.45078 229.64 9.58123C229.528 9.71167 229.369 9.7769 229.164 9.7769H225.698V20.6783C225.698 20.8647 225.633 21.0231 225.503 21.1535C225.372 21.284 225.214 21.3492 225.028 21.3492H222.735ZM243.856 21.3492C242.738 21.3492 241.797 21.1535 241.033 20.7622C240.269 20.3708 239.7 19.7932 239.328 19.0291C238.955 18.2465 238.769 17.2775 238.769 16.1221V9.7769H236.56C236.374 9.7769 236.216 9.71167 236.085 9.58123C235.955 9.45078 235.889 9.29239 235.889 9.10604V7.4848C235.889 7.29845 235.955 7.14005 236.085 7.00961C236.216 6.87917 236.374 6.81394 236.56 6.81394H238.769V2.17385C238.769 1.9875 238.824 1.8291 238.936 1.69866C239.067 1.56821 239.234 1.50299 239.439 1.50299H241.704C241.89 1.50299 242.048 1.56821 242.179 1.69866C242.309 1.8291 242.374 1.9875 242.374 2.17385V6.81394H245.868C246.055 6.81394 246.213 6.87917 246.344 7.00961C246.474 7.14005 246.539 7.29845 246.539 7.4848V9.10604C246.539 9.29239 246.474 9.45078 246.344 9.58123C246.213 9.71167 246.055 9.7769 245.868 9.7769H242.374V15.8426C242.374 16.6066 242.505 17.2029 242.766 17.6315C243.045 18.0601 243.52 18.2744 244.191 18.2744H246.12C246.306 18.2744 246.465 18.3396 246.595 18.4701C246.726 18.6005 246.791 18.7589 246.791 18.9453V20.6783C246.791 20.8647 246.726 21.0231 246.595 21.1535C246.465 21.284 246.306 21.3492 246.12 21.3492H243.856ZM249.969 21.3492C249.783 21.3492 249.625 21.284 249.494 21.1535C249.364 21.0231 249.298 20.8647 249.298 20.6783V2.17385C249.298 1.9875 249.364 1.8291 249.494 1.69866C249.625 1.56821 249.783 1.50299 249.969 1.50299H252.457C252.662 1.50299 252.82 1.56821 252.932 1.69866C253.063 1.8291 253.128 1.9875 253.128 2.17385V8.54699C253.631 7.95067 254.246 7.46617 254.973 7.09347C255.7 6.72077 256.594 6.53442 257.656 6.53442C258.793 6.53442 259.781 6.79531 260.619 7.31709C261.476 7.82023 262.138 8.53767 262.604 9.46942C263.07 10.4012 263.303 11.5193 263.303 12.8237V20.6783C263.303 20.8647 263.237 21.0231 263.107 21.1535C262.977 21.284 262.818 21.3492 262.632 21.3492H260.116C259.93 21.3492 259.771 21.284 259.641 21.1535C259.51 21.0231 259.445 20.8647 259.445 20.6783V12.9914C259.445 11.9106 259.175 11.0627 258.635 10.4478C258.113 9.8328 257.349 9.52532 256.342 9.52532C255.373 9.52532 254.591 9.8328 253.994 10.4478C253.417 11.0627 253.128 11.9106 253.128 12.9914V20.6783C253.128 20.8647 253.063 21.0231 252.932 21.1535C252.82 21.284 252.662 21.3492 252.457 21.3492H249.969ZM273.111 21.6287C271.043 21.6287 269.403 21.0324 268.192 19.8398C266.98 18.6471 266.328 16.9513 266.235 14.7524C266.216 14.5661 266.207 14.3331 266.207 14.0536C266.207 13.7555 266.216 13.5225 266.235 13.3548C266.31 11.9572 266.626 10.7459 267.185 9.72099C267.763 8.69607 268.555 7.9134 269.561 7.37299C270.568 6.81394 271.751 6.53442 273.111 6.53442C274.621 6.53442 275.888 6.85121 276.913 7.4848C277.938 8.09975 278.711 8.96628 279.233 10.0844C279.755 11.1838 280.016 12.4603 280.016 13.9138V14.5008C280.016 14.6872 279.95 14.8456 279.82 14.976C279.689 15.1065 279.522 15.1717 279.317 15.1717H270.037C270.037 15.1717 270.037 15.1997 270.037 15.2556C270.037 15.3115 270.037 15.3581 270.037 15.3953C270.055 16.0475 270.176 16.6532 270.4 17.2122C270.642 17.7526 270.987 18.1906 271.434 18.526C271.9 18.8614 272.45 19.0291 273.083 19.0291C273.605 19.0291 274.043 18.9546 274.397 18.8055C274.751 18.6378 275.04 18.4515 275.264 18.2465C275.487 18.0415 275.646 17.8738 275.739 17.7433C275.907 17.5197 276.037 17.3893 276.13 17.352C276.242 17.2961 276.4 17.2681 276.605 17.2681H279.009C279.196 17.2681 279.345 17.324 279.456 17.4358C279.587 17.5477 279.643 17.6874 279.624 17.8551C279.606 18.1533 279.447 18.5167 279.149 18.9453C278.869 19.3739 278.46 19.7932 277.919 20.2031C277.379 20.6131 276.699 20.9578 275.879 21.2374C275.077 21.4983 274.155 21.6287 273.111 21.6287ZM270.037 12.8237H276.214V12.7398C276.214 12.0131 276.093 11.3795 275.851 10.8391C275.608 10.2987 275.254 9.87007 274.788 9.55328C274.323 9.23648 273.764 9.07809 273.111 9.07809C272.459 9.07809 271.9 9.23648 271.434 9.55328C270.968 9.87007 270.614 10.2987 270.372 10.8391C270.148 11.3795 270.037 12.0131 270.037 12.7398V12.8237ZM291.115 21.3492C290.929 21.3492 290.77 21.284 290.64 21.1535C290.509 21.0231 290.444 20.8647 290.444 20.6783V9.7769H288.18C287.994 9.7769 287.835 9.71167 287.705 9.58123C287.574 9.45078 287.509 9.29239 287.509 9.10604V7.4848C287.509 7.29845 287.574 7.14005 287.705 7.00961C287.835 6.87917 287.994 6.81394 288.18 6.81394H290.444V5.66789C290.444 4.5498 290.649 3.62737 291.059 2.90061C291.469 2.15521 292.075 1.59616 292.876 1.22347C293.677 0.850769 294.693 0.66442 295.923 0.66442H297.824C298.029 0.66442 298.187 0.729642 298.299 0.860086C298.429 0.990531 298.494 1.14893 298.494 1.33528V2.95651C298.494 3.14286 298.429 3.30126 298.299 3.4317C298.187 3.56215 298.029 3.62737 297.824 3.62737H296.035C295.289 3.62737 294.777 3.81372 294.497 4.18642C294.218 4.55912 294.078 5.09953 294.078 5.80766V6.81394H297.544C297.749 6.81394 297.907 6.87917 298.019 7.00961C298.15 7.14005 298.215 7.29845 298.215 7.4848V9.10604C298.215 9.29239 298.15 9.45078 298.019 9.58123C297.907 9.71167 297.749 9.7769 297.544 9.7769H294.078V20.6783C294.078 20.8647 294.013 21.0231 293.882 21.1535C293.752 21.284 293.593 21.3492 293.407 21.3492H291.115ZM306.664 21.6287C305.173 21.6287 303.915 21.3678 302.89 20.846C301.884 20.3243 301.11 19.5882 300.57 18.6378C300.048 17.6874 299.75 16.5786 299.675 15.3115C299.657 14.976 299.648 14.5661 299.648 14.0816C299.648 13.5971 299.657 13.1871 299.675 12.8517C299.75 11.5658 300.057 10.4571 300.598 9.52532C301.157 8.57494 301.94 7.83886 302.946 7.31709C303.971 6.79531 305.21 6.53442 306.664 6.53442C308.117 6.53442 309.347 6.79531 310.353 7.31709C311.378 7.83886 312.161 8.57494 312.701 9.52532C313.26 10.4571 313.577 11.5658 313.652 12.8517C313.67 13.1871 313.68 13.5971 313.68 14.0816C313.68 14.5661 313.67 14.976 313.652 15.3115C313.577 16.5786 313.27 17.6874 312.729 18.6378C312.207 19.5882 311.434 20.3243 310.409 20.846C309.403 21.3678 308.154 21.6287 306.664 21.6287ZM306.664 18.8614C307.651 18.8614 308.415 18.5539 308.956 17.939C309.496 17.3054 309.794 16.383 309.85 15.1717C309.869 14.8922 309.878 14.5288 309.878 14.0816C309.878 13.6343 309.869 13.2709 309.85 12.9914C309.794 11.7988 309.496 10.8857 308.956 10.2521C308.415 9.6185 307.651 9.30171 306.664 9.30171C305.676 9.30171 304.912 9.6185 304.371 10.2521C303.831 10.8857 303.533 11.7988 303.477 12.9914C303.458 13.2709 303.449 13.6343 303.449 14.0816C303.449 14.5288 303.458 14.8922 303.477 15.1717C303.533 16.383 303.831 17.3054 304.371 17.939C304.912 18.5539 305.676 18.8614 306.664 18.8614ZM317.475 21.3492C317.289 21.3492 317.131 21.284 317 21.1535C316.87 21.0231 316.805 20.8647 316.805 20.6783V2.17385C316.805 1.9875 316.87 1.8291 317 1.69866C317.131 1.56821 317.289 1.50299 317.475 1.50299H319.795C319.982 1.50299 320.14 1.56821 320.271 1.69866C320.401 1.8291 320.466 1.9875 320.466 2.17385V20.6783C320.466 20.8647 320.401 21.0231 320.271 21.1535C320.14 21.284 319.982 21.3492 319.795 21.3492H317.475ZM324.873 21.3492C324.687 21.3492 324.528 21.284 324.398 21.1535C324.267 21.0231 324.202 20.8647 324.202 20.6783V2.17385C324.202 1.9875 324.267 1.8291 324.398 1.69866C324.528 1.56821 324.687 1.50299 324.873 1.50299H327.193C327.379 1.50299 327.538 1.56821 327.668 1.69866C327.799 1.8291 327.864 1.9875 327.864 2.17385V20.6783C327.864 20.8647 327.799 21.0231 327.668 21.1535C327.538 21.284 327.379 21.3492 327.193 21.3492H324.873ZM338.001 21.6287C336.51 21.6287 335.252 21.3678 334.227 20.846C333.221 20.3243 332.448 19.5882 331.907 18.6378C331.385 17.6874 331.087 16.5786 331.013 15.3115C330.994 14.976 330.985 14.5661 330.985 14.0816C330.985 13.5971 330.994 13.1871 331.013 12.8517C331.087 11.5658 331.395 10.4571 331.935 9.52532C332.494 8.57494 333.277 7.83886 334.283 7.31709C335.308 6.79531 336.547 6.53442 338.001 6.53442C339.454 6.53442 340.684 6.79531 341.69 7.31709C342.715 7.83886 343.498 8.57494 344.038 9.52532C344.598 10.4571 344.914 11.5658 344.989 12.8517C345.008 13.1871 345.017 13.5971 345.017 14.0816C345.017 14.5661 345.008 14.976 344.989 15.3115C344.914 16.5786 344.607 17.6874 344.066 18.6378C343.545 19.5882 342.771 20.3243 341.746 20.846C340.74 21.3678 339.492 21.6287 338.001 21.6287ZM338.001 18.8614C338.988 18.8614 339.752 18.5539 340.293 17.939C340.833 17.3054 341.131 16.383 341.187 15.1717C341.206 14.8922 341.215 14.5288 341.215 14.0816C341.215 13.6343 341.206 13.2709 341.187 12.9914C341.131 11.7988 340.833 10.8857 340.293 10.2521C339.752 9.6185 338.988 9.30171 338.001 9.30171C337.013 9.30171 336.249 9.6185 335.709 10.2521C335.168 10.8857 334.87 11.7988 334.814 12.9914C334.796 13.2709 334.786 13.6343 334.786 14.0816C334.786 14.5288 334.796 14.8922 334.814 15.1717C334.87 16.383 335.168 17.3054 335.709 17.939C336.249 18.5539 337.013 18.8614 338.001 18.8614ZM351.674 21.3492C351.413 21.3492 351.217 21.284 351.087 21.1535C350.956 21.0231 350.844 20.8554 350.751 20.6504L346.754 7.68047C346.735 7.58729 346.726 7.50344 346.726 7.4289C346.726 7.26118 346.782 7.12142 346.894 7.00961C347.024 6.87917 347.164 6.81394 347.313 6.81394H349.382C349.605 6.81394 349.782 6.87917 349.913 7.00961C350.043 7.12142 350.118 7.23323 350.136 7.34504L352.876 16.5973L355.783 7.4289C355.82 7.29845 355.904 7.16801 356.034 7.03756C356.165 6.88848 356.36 6.81394 356.621 6.81394H358.019C358.28 6.81394 358.475 6.88848 358.606 7.03756C358.736 7.16801 358.82 7.29845 358.857 7.4289L361.764 16.5973L364.504 7.34504C364.522 7.23323 364.588 7.12142 364.699 7.00961C364.83 6.87917 365.007 6.81394 365.231 6.81394H367.299C367.467 6.81394 367.607 6.87917 367.718 7.00961C367.849 7.12142 367.914 7.26118 367.914 7.4289C367.914 7.50344 367.895 7.58729 367.858 7.68047L363.861 20.6504C363.805 20.8554 363.702 21.0231 363.553 21.1535C363.423 21.284 363.227 21.3492 362.966 21.3492H361.15C360.889 21.3492 360.684 21.284 360.535 21.1535C360.385 21.0231 360.283 20.8554 360.227 20.6504L357.32 11.8174L354.413 20.6504C354.338 20.8554 354.227 21.0231 354.078 21.1535C353.947 21.284 353.742 21.3492 353.463 21.3492H351.674ZM371.305 21.3492C371.119 21.3492 370.96 21.284 370.83 21.1535C370.699 21.0231 370.634 20.8647 370.634 20.6783V7.4848C370.634 7.29845 370.699 7.14005 370.83 7.00961C370.96 6.87917 371.119 6.81394 371.305 6.81394H373.625C373.83 6.81394 373.988 6.87917 374.1 7.00961C374.231 7.14005 374.296 7.29845 374.296 7.4848V20.6783C374.296 20.8647 374.231 21.0231 374.1 21.1535C373.988 21.284 373.83 21.3492 373.625 21.3492H371.305ZM371.193 4.41004C370.988 4.41004 370.82 4.35413 370.69 4.24232C370.578 4.11188 370.522 3.94417 370.522 3.73918V1.72661C370.522 1.54026 370.578 1.38186 370.69 1.25142C370.82 1.12098 370.988 1.05575 371.193 1.05575H373.737C373.942 1.05575 374.11 1.12098 374.24 1.25142C374.37 1.38186 374.436 1.54026 374.436 1.72661V3.73918C374.436 3.94417 374.37 4.11188 374.24 4.24232C374.11 4.35413 373.942 4.41004 373.737 4.41004H371.193ZM379.248 21.3492C379.062 21.3492 378.904 21.284 378.773 21.1535C378.643 21.0231 378.578 20.8647 378.578 20.6783V7.4848C378.578 7.29845 378.643 7.14005 378.773 7.00961C378.904 6.87917 379.062 6.81394 379.248 6.81394H381.541C381.727 6.81394 381.885 6.87917 382.016 7.00961C382.146 7.14005 382.211 7.29845 382.211 7.4848V8.63085C382.696 8.03453 383.311 7.54071 384.056 7.14937C384.82 6.7394 385.761 6.53442 386.879 6.53442C388.016 6.53442 389.004 6.79531 389.842 7.31709C390.681 7.82023 391.324 8.53767 391.771 9.46942C392.237 10.4012 392.47 11.5193 392.47 12.8237V20.6783C392.47 20.8647 392.405 21.0231 392.274 21.1535C392.144 21.284 391.985 21.3492 391.799 21.3492H389.339C389.153 21.3492 388.995 21.284 388.864 21.1535C388.734 21.0231 388.668 20.8647 388.668 20.6783V12.9914C388.668 11.9106 388.398 11.0627 387.858 10.4478C387.336 9.8328 386.572 9.52532 385.566 9.52532C384.597 9.52532 383.823 9.8328 383.246 10.4478C382.668 11.0627 382.379 11.9106 382.379 12.9914V20.6783C382.379 20.8647 382.314 21.0231 382.183 21.1535C382.053 21.284 381.895 21.3492 381.708 21.3492H379.248ZM402.589 27.4987C401.229 27.4987 400.111 27.3217 399.235 26.9676C398.359 26.6135 397.67 26.1849 397.167 25.6818C396.663 25.1787 396.3 24.6755 396.076 24.1724C395.871 23.6879 395.76 23.3058 395.741 23.0263C395.722 22.84 395.778 22.6723 395.909 22.5232C396.058 22.3927 396.226 22.3275 396.412 22.3275H398.844C399.03 22.3275 399.179 22.3648 399.291 22.4393C399.403 22.5325 399.496 22.6909 399.57 22.9145C399.682 23.1568 399.831 23.4177 400.018 23.6972C400.204 23.9767 400.484 24.2096 400.856 24.396C401.248 24.601 401.779 24.7035 402.45 24.7035C403.158 24.7035 403.754 24.601 404.239 24.396C404.723 24.191 405.086 23.8463 405.329 23.3618C405.59 22.8772 405.72 22.2064 405.72 21.3492V19.4484C405.273 19.9888 404.695 20.4268 403.987 20.7622C403.297 21.0976 402.44 21.2653 401.415 21.2653C400.409 21.2653 399.543 21.1069 398.816 20.7901C398.089 20.4547 397.483 19.9982 396.999 19.4205C396.514 18.8242 396.142 18.1253 395.881 17.324C395.639 16.5227 395.499 15.6376 395.461 14.6686C395.443 14.1654 395.443 13.6623 395.461 13.1591C395.499 12.2274 395.639 11.3609 395.881 10.5596C396.123 9.75826 396.486 9.05945 396.971 8.46313C397.474 7.84818 398.089 7.37299 398.816 7.03756C399.543 6.70213 400.409 6.53442 401.415 6.53442C402.478 6.53442 403.372 6.7394 404.099 7.14937C404.826 7.54071 405.422 8.03453 405.888 8.63085V7.51275C405.888 7.30777 405.953 7.14005 406.083 7.00961C406.214 6.87917 406.372 6.81394 406.559 6.81394H408.823C409.009 6.81394 409.167 6.87917 409.298 7.00961C409.428 7.14005 409.494 7.30777 409.494 7.51275L409.522 20.9858C409.522 22.3275 409.27 23.4829 408.767 24.4519C408.264 25.4209 407.5 26.1663 406.475 26.6881C405.468 27.2285 404.173 27.4987 402.589 27.4987ZM402.45 18.3024C403.214 18.3024 403.829 18.1347 404.294 17.7992C404.76 17.4638 405.105 17.0259 405.329 16.4855C405.552 15.9451 405.683 15.3953 405.72 14.8363C405.739 14.594 405.748 14.2865 405.748 13.9138C405.748 13.5412 405.739 13.243 405.72 13.0194C405.683 12.4417 405.552 11.892 405.329 11.3702C405.105 10.8298 404.76 10.3918 404.294 10.0564C403.829 9.70236 403.214 9.52532 402.45 9.52532C401.686 9.52532 401.071 9.70236 400.605 10.0564C400.139 10.3918 399.803 10.8391 399.598 11.3981C399.412 11.9572 399.3 12.5721 399.263 13.243C399.226 13.6902 399.226 14.1468 399.263 14.6127C399.3 15.2649 399.412 15.8798 399.598 16.4575C399.803 17.0166 400.139 17.4638 400.605 17.7992C401.071 18.1347 401.686 18.3024 402.45 18.3024ZM427.515 21.6287C425.782 21.6287 424.31 21.3305 423.099 20.7342C421.906 20.1193 420.993 19.2528 420.359 18.1347C419.726 16.9979 419.372 15.6376 419.297 14.0536C419.279 13.2896 419.269 12.4696 419.269 11.5938C419.269 10.718 419.279 9.87939 419.297 9.07809C419.372 7.51275 419.726 6.16172 420.359 5.02499C421.012 3.88826 421.934 3.02174 423.127 2.42542C424.338 1.81047 425.801 1.50299 427.515 1.50299C428.782 1.50299 429.919 1.6707 430.925 2.00613C431.932 2.34156 432.789 2.80744 433.497 3.40375C434.205 3.98144 434.755 4.66161 435.146 5.44428C435.538 6.22694 435.743 7.07483 435.761 7.98794C435.78 8.15566 435.724 8.29542 435.593 8.40723C435.482 8.51904 435.342 8.57494 435.174 8.57494H432.519C432.314 8.57494 432.146 8.52836 432.016 8.43518C431.885 8.32337 431.792 8.14634 431.736 7.90409C431.438 6.67418 430.925 5.83561 430.199 5.38837C429.472 4.94113 428.568 4.71751 427.487 4.71751C426.239 4.71751 425.242 5.07158 424.496 5.7797C423.751 6.4692 423.35 7.61524 423.294 9.21785C423.239 10.7459 423.239 12.3112 423.294 13.9138C423.35 15.5165 423.751 16.6718 424.496 17.3799C425.242 18.0694 426.239 18.4142 427.487 18.4142C428.568 18.4142 429.472 18.1906 430.199 17.7433C430.925 17.2775 431.438 16.4389 431.736 15.2276C431.792 14.9667 431.885 14.7897 432.016 14.6965C432.146 14.6033 432.314 14.5568 432.519 14.5568H435.174C435.342 14.5568 435.482 14.6127 435.593 14.7245C435.724 14.8363 435.78 14.976 435.761 15.1438C435.743 16.0569 435.538 16.9048 435.146 17.6874C434.755 18.4701 434.205 19.1596 433.497 19.7559C432.789 20.3336 431.932 20.7901 430.925 21.1256C429.919 21.461 428.782 21.6287 427.515 21.6287ZM445.17 21.6287C443.679 21.6287 442.421 21.3678 441.396 20.846C440.39 20.3243 439.617 19.5882 439.076 18.6378C438.554 17.6874 438.256 16.5786 438.182 15.3115C438.163 14.976 438.154 14.5661 438.154 14.0816C438.154 13.5971 438.163 13.1871 438.182 12.8517C438.256 11.5658 438.564 10.4571 439.104 9.52532C439.663 8.57494 440.446 7.83886 441.452 7.31709C442.477 6.79531 443.716 6.53442 445.17 6.53442C446.623 6.53442 447.853 6.79531 448.859 7.31709C449.884 7.83886 450.667 8.57494 451.207 9.52532C451.767 10.4571 452.083 11.5658 452.158 12.8517C452.177 13.1871 452.186 13.5971 452.186 14.0816C452.186 14.5661 452.177 14.976 452.158 15.3115C452.083 16.5786 451.776 17.6874 451.235 18.6378C450.714 19.5882 449.94 20.3243 448.915 20.846C447.909 21.3678 446.661 21.6287 445.17 21.6287ZM445.17 18.8614C446.157 18.8614 446.921 18.5539 447.462 17.939C448.002 17.3054 448.3 16.383 448.356 15.1717C448.375 14.8922 448.384 14.5288 448.384 14.0816C448.384 13.6343 448.375 13.2709 448.356 12.9914C448.3 11.7988 448.002 10.8857 447.462 10.2521C446.921 9.6185 446.157 9.30171 445.17 9.30171C444.182 9.30171 443.418 9.6185 442.878 10.2521C442.337 10.8857 442.039 11.7988 441.983 12.9914C441.965 13.2709 441.955 13.6343 441.955 14.0816C441.955 14.5288 441.965 14.8922 441.983 15.1717C442.039 16.383 442.337 17.3054 442.878 17.939C443.418 18.5539 444.182 18.8614 445.17 18.8614ZM455.954 21.3492C455.767 21.3492 455.609 21.284 455.479 21.1535C455.348 21.0231 455.283 20.8647 455.283 20.6783V7.4848C455.283 7.29845 455.348 7.14005 455.479 7.00961C455.609 6.87917 455.767 6.81394 455.954 6.81394H458.274C458.479 6.81394 458.637 6.87917 458.749 7.00961C458.879 7.14005 458.945 7.29845 458.945 7.4848V20.6783C458.945 20.8647 458.879 21.0231 458.749 21.1535C458.637 21.284 458.479 21.3492 458.274 21.3492H455.954ZM455.842 4.41004C455.637 4.41004 455.469 4.35413 455.339 4.24232C455.227 4.11188 455.171 3.94417 455.171 3.73918V1.72661C455.171 1.54026 455.227 1.38186 455.339 1.25142C455.469 1.12098 455.637 1.05575 455.842 1.05575H458.386C458.591 1.05575 458.758 1.12098 458.889 1.25142C459.019 1.38186 459.084 1.54026 459.084 1.72661V3.73918C459.084 3.94417 459.019 4.11188 458.889 4.24232C458.758 4.35413 458.591 4.41004 458.386 4.41004H455.842ZM463.897 21.3492C463.711 21.3492 463.552 21.284 463.422 21.1535C463.292 21.0231 463.226 20.8647 463.226 20.6783V7.4848C463.226 7.29845 463.292 7.14005 463.422 7.00961C463.552 6.87917 463.711 6.81394 463.897 6.81394H466.189C466.376 6.81394 466.534 6.87917 466.665 7.00961C466.795 7.14005 466.86 7.29845 466.86 7.4848V8.63085C467.345 8.03453 467.96 7.54071 468.705 7.14937C469.469 6.7394 470.41 6.53442 471.528 6.53442C472.665 6.53442 473.653 6.79531 474.491 7.31709C475.33 7.82023 475.973 8.53767 476.42 9.46942C476.886 10.4012 477.119 11.5193 477.119 12.8237V20.6783C477.119 20.8647 477.053 21.0231 476.923 21.1535C476.793 21.284 476.634 21.3492 476.448 21.3492H473.988C473.802 21.3492 473.643 21.284 473.513 21.1535C473.382 21.0231 473.317 20.8647 473.317 20.6783V12.9914C473.317 11.9106 473.047 11.0627 472.507 10.4478C471.985 9.8328 471.221 9.52532 470.214 9.52532C469.245 9.52532 468.472 9.8328 467.894 10.4478C467.317 11.0627 467.028 11.9106 467.028 12.9914V20.6783C467.028 20.8647 466.963 21.0231 466.832 21.1535C466.702 21.284 466.543 21.3492 466.357 21.3492H463.897ZM486.176 21.6287C485.058 21.6287 484.098 21.4983 483.297 21.2374C482.514 20.9765 481.871 20.6504 481.368 20.259C480.865 19.8677 480.492 19.4764 480.25 19.085C480.008 18.6937 479.877 18.3676 479.859 18.1067C479.84 17.9017 479.896 17.7433 480.026 17.6315C480.175 17.5011 480.334 17.4358 480.502 17.4358H482.71C482.784 17.4358 482.85 17.4452 482.905 17.4638C482.961 17.4824 483.036 17.5383 483.129 17.6315C483.371 17.8365 483.623 18.0508 483.884 18.2744C484.163 18.498 484.489 18.6937 484.862 18.8614C485.235 19.0105 485.701 19.085 486.26 19.085C486.987 19.085 487.592 18.9453 488.077 18.6658C488.58 18.3676 488.831 17.9483 488.831 17.4079C488.831 17.0166 488.72 16.6998 488.496 16.4575C488.291 16.2153 487.9 16.001 487.322 15.8146C486.744 15.6096 485.924 15.3953 484.862 15.1717C483.819 14.9295 482.952 14.622 482.263 14.2493C481.573 13.8766 481.061 13.4107 480.725 12.8517C480.39 12.2926 480.222 11.6404 480.222 10.895C480.222 10.1682 480.436 9.47874 480.865 8.82651C481.312 8.15566 481.964 7.60593 482.822 7.17732C483.697 6.74872 484.778 6.53442 486.064 6.53442C487.07 6.53442 487.946 6.66486 488.692 6.92575C489.437 7.16801 490.052 7.47548 490.536 7.84818C491.04 8.22088 491.422 8.6029 491.683 8.99423C491.943 9.36693 492.083 9.69304 492.102 9.97256C492.12 10.1775 492.065 10.3453 491.934 10.4757C491.804 10.5875 491.655 10.6434 491.487 10.6434H489.418C489.325 10.6434 489.241 10.6248 489.167 10.5875C489.092 10.5502 489.018 10.5037 488.943 10.4478C488.738 10.2614 488.515 10.0657 488.272 9.86075C488.03 9.65577 487.732 9.47874 487.378 9.32966C487.042 9.16194 486.595 9.07809 486.036 9.07809C485.328 9.07809 484.788 9.23648 484.415 9.55328C484.042 9.85144 483.856 10.2335 483.856 10.6993C483.856 11.0161 483.94 11.2956 484.107 11.5379C484.294 11.7615 484.657 11.9758 485.198 12.1808C485.738 12.3858 486.558 12.6001 487.657 12.8237C488.906 13.0473 489.894 13.3828 490.62 13.83C491.366 14.2586 491.888 14.7617 492.186 15.3394C492.502 15.8985 492.661 16.5227 492.661 17.2122C492.661 18.0508 492.409 18.8055 491.906 19.4764C491.422 20.1472 490.695 20.6783 489.726 21.0697C488.775 21.4424 487.592 21.6287 486.176 21.6287Z" fill="white"/>
</svg>
